<svg width="250" height="250" viewBox="0 0 250 250" fill="none" xmlns="http://www.w3.org/2000/svg">
<circle cx="125" cy="125" r="125" fill="#F89B36"/>
<path d="M119.1 182.458C119.1 183.498 118.686 184.496 117.948 185.232C117.21 185.967 116.21 186.381 115.167 186.381H101.4C100.357 186.381 99.3564 185.967 98.6187 185.232C97.8811 184.496 97.4667 183.498 97.4667 182.458C97.4667 181.417 97.8811 180.419 98.6187 179.684C99.3564 178.948 100.357 178.535 101.4 178.535H115.167C116.21 178.535 117.21 178.948 117.948 179.684C118.686 180.419 119.1 181.417 119.1 182.458ZM148.6 178.535H134.833C133.79 178.535 132.79 178.948 132.052 179.684C131.314 180.419 130.9 181.417 130.9 182.458C130.9 183.498 131.314 184.496 132.052 185.232C132.79 185.967 133.79 186.381 134.833 186.381H148.6C149.643 186.381 150.644 185.967 151.381 185.232C152.119 184.496 152.533 183.498 152.533 182.458C152.533 181.417 152.119 180.419 151.381 179.684C150.644 178.948 149.643 178.535 148.6 178.535ZM184 202.073C184 203.113 183.586 204.111 182.848 204.847C182.11 205.583 181.11 205.996 180.067 205.996H69.9333C68.8901 205.996 67.8897 205.583 67.152 204.847C66.4144 204.111 66 203.113 66 202.073C66 201.033 66.4144 200.035 67.152 199.299C67.8897 198.563 68.8901 198.15 69.9333 198.15H77.8V139.304C77.8 138.575 78.0034 137.861 78.3874 137.241C78.7715 136.622 79.3209 136.121 79.9743 135.795C80.6276 135.469 81.3591 135.331 82.0866 135.397C82.8141 135.462 83.509 135.728 84.0933 136.165L109.267 154.996V139.304C109.267 138.575 109.47 137.861 109.854 137.241C110.238 136.622 110.788 136.121 111.441 135.795C112.094 135.469 112.826 135.331 113.553 135.397C114.281 135.462 114.976 135.728 115.56 136.165L134.607 150.411L140.291 110.734C140.566 108.867 141.503 107.161 142.932 105.925C144.361 104.688 146.187 104.004 148.079 103.996H156.988C158.879 104.004 160.705 104.688 162.134 105.925C163.563 107.161 164.501 108.867 164.776 110.734L172.151 162.288C172.151 162.288 172.19 162.671 172.19 162.842V198.15H180.057C180.574 198.149 181.087 198.249 181.565 198.446C182.043 198.642 182.478 198.931 182.844 199.296C183.211 199.66 183.501 200.093 183.7 200.569C183.898 201.046 184 201.557 184 202.073ZM141.785 155.781L145.979 158.919H163.733L156.988 111.842H148.079L141.785 155.781ZM85.6667 198.15H164.333V166.765H144.667C143.816 166.765 142.988 166.49 142.307 165.981L135.227 160.685L117.133 147.15V162.842C117.133 163.571 116.93 164.285 116.546 164.905C116.162 165.524 115.612 166.025 114.959 166.351C114.306 166.677 113.574 166.815 112.847 166.749C112.119 166.684 111.424 166.418 110.84 165.981L85.6667 147.15V198.15Z" fill="white"/>
<path d="M89.1025 44.6004C83.9837 45.5975 78.3331 48.855 74.2115 53.1095C62.9103 65.009 63.3092 82.3597 75.2087 94.3921C78.5325 97.7825 79.1308 98.7132 79.1308 100.774C79.1308 103.367 79.7742 105.38 81.4362 106.643C96.4164 106.643 95.5085 106.643 107.765 106.643C110.092 105.446 110.974 104.231 111.04 101.173C111.04 98.6467 111.439 97.9819 114.896 94.4586C126.862 82.3597 127.394 65.142 116.026 53.2425C108.78 45.5976 99.34 42.606 89.1025 44.6004Z" fill="white"/>
<path d="M96.8867 57.0391C102.878 56.984 110.087 62.4324 110.997 69.1585" stroke="#F89B36" stroke-width="8" stroke-linecap="round"/>
<path d="M83.7402 114L108.022 114" stroke="white" stroke-width="8" stroke-linecap="round"/>
</svg>
