<svg width="250" height="250" viewBox="0 0 250 250" fill="none" xmlns="http://www.w3.org/2000/svg">
<circle cx="125" cy="125" r="125" fill="#B65B26"/>
<path d="M109.651 202.367C124.231 202.367 142.707 190.299 142.707 167.579C142.707 155.113 137.5 141.996 130.333 131.96C126.765 126.965 122.807 122.871 118.948 120.064C115.03 117.214 111.549 115.928 108.854 115.928L109.651 202.367ZM109.651 202.367C93.3693 202.367 75.0056 190.207 75 167.578M109.651 202.367L75 167.578M75 167.578C74.9969 154.954 79.4501 141.81 86.1445 131.869M75 167.578L86.1445 131.869M86.1445 131.869C92.9583 121.752 101.373 115.928 108.853 115.928L86.1445 131.869Z" stroke="white" stroke-width="8"/>
<path d="M138.055 45.2893C136.807 46.0777 134.704 47.6547 133.39 48.9031C130.762 51.4657 127.937 52.4512 123.403 52.4512C117.095 52.4512 113.744 55.6708 113.744 61.7815C113.678 66.5781 112.693 69.4035 109.933 72.4259C103.822 79.0623 103.822 82.3476 109.867 88.9182C112.824 92.0721 113.744 94.6347 113.744 99.2998C113.744 105.608 116.898 108.959 122.746 108.959C128.134 109.024 130.565 109.944 134.573 113.492C140.486 118.815 143.903 118.683 150.145 112.901C153.365 109.879 155.927 108.959 160.593 108.959C166.9 108.959 170.251 105.805 170.251 99.9569C170.317 94.569 171.237 92.1378 174.785 88.1297C180.173 82.0848 179.976 79.0623 173.931 72.2288C172.288 70.3233 170.908 68.615 170.843 68.3522C169.923 57.3792 169.791 56.985 167.755 54.9481C166.046 53.174 165.126 52.9112 160.658 52.3855C157.767 52.1227 155.139 51.8599 154.679 51.8599C154.219 51.7942 152.379 50.48 150.54 48.8374C144.692 43.6466 142.063 42.9238 138.055 45.2893Z" fill="white"/>
<path d="M127.025 82.3139L135.928 91.2163C136.318 91.6068 136.952 91.6068 137.342 91.2163L156.84 71.7188" stroke="#D36127" stroke-width="8" stroke-linecap="round"/>
</svg>
