<svg width="250" height="250" viewBox="0 0 250 250" fill="none" xmlns="http://www.w3.org/2000/svg">
<circle cx="125" cy="125" r="125" fill="#5B68E4"/>
<path d="M123.5 44C117.27 44 111.18 45.8474 106 49.3087C100.819 52.77 96.782 57.6896 94.3978 63.4455C92.0136 69.2013 91.3898 75.5349 92.6053 81.6453C93.8207 87.7557 96.8208 93.3685 101.226 97.7739C105.632 102.179 111.244 105.179 117.355 106.395C123.465 107.61 129.799 106.986 135.555 104.602C141.31 102.218 146.23 98.1806 149.691 93.0005C153.153 87.8203 155 81.7301 155 75.5C154.991 67.1484 151.67 59.1414 145.764 53.2359C139.859 47.3304 131.852 44.0088 123.5 44Z" fill="white"/>
<circle cx="111.5" cy="68.5" r="4.5" fill="#5B68E4"/>
<circle cx="135.5" cy="68.5" r="4.5" fill="#5B68E4"/>
<path d="M136.002 83.9141C133.261 88.3616 128.703 90.9141 123.501 90.9141C118.298 90.9141 113.743 88.3641 111.002 83.9141" stroke="#5B68E4" stroke-width="7" stroke-linecap="round"/>
<path d="M120.322 202.902C120.103 203.786 119.597 204.572 118.884 205.133C118.171 205.695 117.293 206 116.388 206C116.047 206.002 115.706 205.96 115.375 205.877L99.1533 201.787C98.7017 201.673 98.2731 201.481 97.8861 201.219L85.7201 193.039C84.8254 192.437 84.2044 191.501 83.9939 190.437C83.7833 189.373 84.0004 188.269 84.5973 187.366C85.1942 186.464 86.1221 185.838 87.1768 185.625C88.2316 185.413 89.3268 185.632 90.2215 186.234L101.799 194.021L117.341 197.942C117.861 198.069 118.35 198.298 118.781 198.617C119.212 198.935 119.577 199.336 119.854 199.797C120.131 200.258 120.315 200.769 120.395 201.302C120.476 201.835 120.451 202.379 120.322 202.902ZM187.585 153.583C187.252 154.603 186.722 155.546 186.026 156.357C185.33 157.169 184.482 157.834 183.529 158.313L171.526 164.366L143.605 192.533C143.109 193.032 142.494 193.393 141.819 193.582C141.144 193.77 140.432 193.778 139.752 193.607L107.31 185.426C106.816 185.301 106.35 185.084 105.936 184.787L77.7919 164.52L65.484 158.313C63.5605 157.343 62.0976 155.642 61.4169 153.585C60.7363 151.527 60.8937 149.281 61.8545 147.341L74.4514 121.935C75.413 119.995 77.0991 118.52 79.1391 117.833C81.1791 117.147 83.4058 117.305 85.3298 118.274L96.5123 123.898L123.379 116.158C124.108 115.947 124.88 115.947 125.609 116.158L152.476 123.898L163.658 118.274C165.582 117.305 167.809 117.147 169.849 117.833C171.889 118.52 173.575 119.995 174.537 121.935L187.134 147.341C187.614 148.3 187.901 149.345 187.979 150.417C188.056 151.488 187.922 152.564 187.585 153.583ZM164.175 160.199L150.382 132.376H134.252L112.333 153.849C118.751 157.986 128.813 159.126 137.841 149.948C138.546 149.231 139.489 148.803 140.489 148.745C141.488 148.688 142.474 149.005 143.255 149.636L160.698 163.732L164.175 160.199ZM69.1085 150.996L78.0758 155.521L90.6727 130.116L81.7053 125.591L69.1085 150.996ZM154.914 169.525L140.867 158.18C130.962 166.36 118.386 167.439 107.964 160.736C106.938 160.079 106.073 159.197 105.431 158.156C104.789 157.116 104.387 155.943 104.254 154.725C104.122 153.507 104.263 152.274 104.666 151.118C105.069 149.962 105.725 148.912 106.585 148.046C106.597 148.031 106.611 148.018 106.625 148.005L129.365 125.76L124.499 124.359L98.9404 131.726L85.0662 159.709L110.006 177.68L139.478 185.109L154.914 169.525ZM179.874 150.996L167.293 125.591L158.326 130.116L170.922 155.521L179.874 150.996Z" fill="white"/>
</svg>
