<svg width="250" height="250" viewBox="0 0 250 250" fill="none" xmlns="http://www.w3.org/2000/svg">
<circle cx="125" cy="125" r="125" fill="#045A2E"/>
<path d="M105.897 51.1857C95.7916 56.4828 98.3178 70.9071 109.564 72.2925C115.513 73.0259 121.054 68.5438 121.788 62.3503C122.847 53.875 113.394 47.1926 105.897 51.1857Z" fill="white"/>
<path d="M135.237 51.1857C125.131 56.4828 127.658 70.9071 138.904 72.2925C144.853 73.0259 150.394 68.5438 151.128 62.3503C152.187 53.875 142.734 47.1926 135.237 51.1857Z" fill="white"/>
<path d="M86.3401 70.7443C76.2349 76.0414 78.7612 90.4657 90.0073 91.8511C95.9563 92.5845 101.498 88.1024 102.231 81.9089C103.291 73.4336 93.8375 66.7512 86.3401 70.7443Z" fill="white"/>
<path d="M154.793 70.7443C144.688 76.0414 147.214 90.4657 158.46 91.8511C164.409 92.5845 169.951 88.1024 170.684 81.9089C171.744 73.4336 162.291 66.7512 154.793 70.7443Z" fill="white"/>
<path d="M120.678 80.8729L120.654 80.8815L120.63 80.8897C119.25 81.3582 117.481 82.5275 115.797 84.2379C114.143 85.9178 112.877 87.8104 112.257 89.4088C110.448 94.4872 106.321 99.3117 101.649 102.179C100.617 102.83 99.2787 104.43 98.2576 106.697C97.2404 108.955 96.8767 111.127 97.0653 112.494L97.0666 112.504C97.9166 118.78 102.166 123.032 107.234 123.743C109.071 123.969 111.15 123.787 114.728 122.669L114.746 122.664L114.763 122.658C122.457 120.332 128.194 120.201 135.655 122.683C141.494 124.528 145.491 123.932 148.674 121.74C155.725 116.759 155.531 106.431 148.434 101.711C145.987 100.108 143.987 98.4651 142.333 96.4399C140.67 94.4026 139.502 92.1558 138.503 89.5224L138.5 89.5135L138.497 89.5047C135.726 82.0963 127.751 78.3694 120.678 80.8729Z" fill="white" stroke="white" stroke-width="8"/>
<path d="M144.048 162.863C148.63 162.166 154.407 161.017 162.84 159.125C169.612 157.56 174.922 156.368 179.053 155.58C183.118 154.805 186.336 154.361 188.805 154.424C191.249 154.487 193.994 155.077 195.749 157.489C197.255 159.558 197.322 162.146 197.322 163.844C197.322 164.856 197.278 166.287 196.648 167.749C195.98 169.297 194.869 170.419 193.596 171.335C191.327 172.968 187.406 174.696 181.274 177.334C173.516 180.718 157.624 185.961 145.593 188.866C135.367 191.44 129.533 192.87 123.609 193.622C117.672 194.375 111.721 194.438 101.268 194.438H80.4472C78.7009 194.438 77.1637 193.542 76.2695 192.186C75.3754 193.542 73.8382 194.438 72.0918 194.438H64.9092H57.7266C54.9651 194.438 52.7266 192.199 52.7266 189.438V176.8L52.7266 164.162C52.7266 161.401 54.9651 159.162 57.7266 159.162H64.9092H72.0918C73.3831 159.162 74.5601 159.652 75.4472 160.455V159.969C75.4472 158.425 76.1604 156.968 77.3793 156.021L79.8337 159.18L77.3793 156.021L94.1326 143.003C95.0099 142.321 96.0894 141.951 97.2005 141.951H118.491C120.961 141.951 123.186 141.942 125.19 141.935C129.617 141.917 132.962 141.904 135.464 141.998C138.908 142.128 141.908 142.446 144.23 144.112C147.418 146.368 148.615 150.023 148.567 153.254C148.519 156.491 147.239 159.958 144.618 162.37C144.44 162.534 144.252 162.699 144.048 162.863Z" stroke="white" stroke-width="8"/>
</svg>
