<svg width="551" height="409" viewBox="0 0 551 409" fill="none" xmlns="http://www.w3.org/2000/svg">
<path fill-rule="evenodd" clip-rule="evenodd" d="M424.133 244.307C424.779 244.418 425.708 244.358 426.108 243.948C426.838 243.199 427.319 243.551 427.992 243.9C429.168 244.504 430.519 245.655 431.565 245.427C433.207 245.12 434.122 245.823 435.087 246.622C436.437 247.749 438.726 247.719 439.161 249.955C439.161 250.027 439.448 250.095 439.592 250.141C442.058 250.872 444.479 251.747 446.966 252.287C449.19 252.735 451.263 254.401 453.73 253.368C456.454 251.949 459.252 250.72 462.294 249.846C462.77 249.768 463.222 249.691 463.698 249.637C463.323 248.33 463.545 247.039 464.29 245.646C464.797 246.14 465.066 246.59 465.473 246.775C465.833 246.938 466.478 246.977 466.761 246.759C469.028 244.988 471.245 243.123 473.464 241.305C473.656 241.398 473.848 241.491 474.04 241.584L474.091 241.869C475.597 240.252 477.174 238.657 479.014 237.131C479.345 236.864 479.7 236.645 480.03 236.378C479.929 235.974 479.829 235.594 479.728 235.19C479.578 234.619 479.641 233.998 479.609 233.331C480.832 233.888 480.832 233.888 482.24 232.081C482.835 232.001 483.381 231.827 483.855 231.559C484.281 231.338 484.679 230.713 485.013 230.78C486.424 231.024 486.697 230.043 487.114 229.108C487.462 228.316 487.785 227.477 488.204 226.732C489.533 224.377 490.91 222.022 492.263 219.691C492.683 218.97 493.006 218.179 493.571 217.599C495.643 215.521 496.971 213.072 497.434 210.18C497.5 209.75 497.538 209.033 497.776 208.959C499.84 208.121 499.746 206.405 499.749 204.807C500.53 204.32 501.571 203.71 501.587 203.042C501.6 202.231 500.778 201.407 500.339 200.649C501.167 200.114 502.115 199.625 502.917 198.97C503.342 198.607 503.877 197.598 503.756 197.505C502.742 196.54 503.834 196.144 504.209 195.615C504.631 195.037 505.197 194.552 505.667 193.998C506.489 193.009 506.786 192.075 505.299 191.403C507.478 188.417 507.385 186.725 505.026 185.062C505.294 183.676 506.706 182.226 504.83 180.986C505.665 179.211 506.287 177.485 505.094 175.641C504.855 177.456 503.806 177.47 502.513 177.081C502.064 175.561 502.266 174.556 503.951 173.962C504.616 173.715 504.959 172.542 505.378 171.773C505.587 171.365 505.482 170.603 505.743 170.48C507.093 169.747 507.339 168.528 507.346 167.216C507.332 166.143 507.824 165.469 508.772 165.004C509.909 164.416 510.445 163.479 510.165 162.099C510.088 161.647 510.51 161.093 510.694 160.566C510.855 160.111 511.251 159.39 511.106 159.249C509.73 157.955 510.289 156.946 511.396 155.882C511.797 155.496 511.931 154.85 512.21 154.274C511.659 154.066 511.275 153.928 510.869 153.814C511.959 151.487 511.933 151.32 510.491 150.48C510.951 149.162 511.435 147.821 511.963 146.287C511.626 146.005 511.046 145.465 510.54 145.018C511.009 144.44 511.67 143.906 511.571 143.621C511.072 141.934 510.981 140.433 511.722 138.706C512.185 137.627 511.712 136.131 511.839 134.865C511.924 134.077 512.582 133.329 512.548 132.566C512.469 130.182 512.248 127.824 511.955 125.442C511.821 124.323 511.499 123.397 512.271 122.219C513.322 120.559 513.106 120.443 512.103 118.477C512.078 118.453 512.125 118.381 512.148 118.309C512.677 118.612 513.205 118.915 514.287 119.569C514.352 117.207 514.423 115.346 514.471 113.485C514.489 113.079 514.314 112.414 514.503 112.292C515.803 111.416 515.339 110.588 514.469 109.693C514.869 109.306 515.199 108.968 515.6 108.605C515.283 108.108 515.039 107.658 514.795 107.232C515.482 106.865 516.074 106.571 516.571 106.302C516.576 103.011 513.911 101.663 512.188 99.3238C512.201 96.6524 512.209 93.6472 512.242 90.6655C511.77 91.0294 511.322 91.4168 510.873 91.7803C511.284 90.3678 512.081 89.2605 512.661 88.0367C513.543 86.141 514.4 84.1979 515.018 82.2103C515.293 81.3482 515.943 79.9564 514.196 79.526C514.077 79.5037 514.023 79.0275 514.067 78.7884C514.267 77.5933 514.658 76.5386 513.855 75.2612C513.1 74.0546 513.03 72.41 512.678 70.9597L512.04 71.421C511.412 70.8329 510.548 70.391 510.228 69.6558C509.59 68.2331 509.378 66.6143 508.786 65.1672C507.948 63.0554 506.101 62.2684 503.977 62.1052C493.689 61.4518 486.067 65.8916 480.573 74.4298C479.591 75.9689 478.514 77.4616 477.315 78.8604C474.943 81.634 473.265 84.7085 472.74 88.3644C472.543 89.7026 472.562 91.1335 470.925 91.8225C470.546 91.9944 470.364 92.7361 470.181 93.2632C469.95 93.8624 469.815 94.4843 469.54 95.3703C469.03 94.6614 468.739 94.2596 468.398 93.7632C468.163 93.9809 467.973 94.1028 467.857 94.2952C466.359 96.5327 466.159 99.4687 463.318 101.056C461.897 101.838 461.282 104.064 460.373 105.697C459.744 106.826 459.426 108.094 458.748 109.153C457.906 110.428 456.703 111.469 455.837 112.72C454.667 114.429 453.713 116.254 452.638 118.009C452.428 118.369 452.123 118.707 451.793 118.998C450.991 119.7 450.092 120.26 449.339 121.033C448.256 122.12 447.343 123.444 446.163 124.437C444.582 125.745 442.71 126.676 441.178 128.032C439.951 129.097 439.136 130.634 437.959 131.794C437.017 132.737 435.932 133.609 434.747 134.221C433.112 135.077 431.307 135.649 429.599 136.339C429.457 136.412 429.266 136.415 429.1 136.489C426.82 137.234 424.516 137.955 423.252 139.784C418.793 139.89 414.549 139.969 410.305 140.048C409.39 139.368 408.336 139.024 407.283 138.728C406.995 138.636 406.568 138.808 406.352 138.668C404.763 137.568 403.246 136.419 401.633 135.271C401.35 135.49 400.971 135.757 400.688 135.975C399.239 134.563 398.049 132.957 396.439 132.024C395.069 131.23 393.773 130.58 392.849 129.232C392.363 128.523 391.214 128.228 390.895 127.493C390.33 126.284 389.722 125.361 388.267 125.333C388.236 124.784 388.206 124.284 388.176 123.807L387.726 124.099C387.022 123.107 386.341 122.114 385.637 121.145C385.298 120.744 384.605 120.682 383.982 120.475C383.336 120.269 382.593 120.016 382.134 119.545C381.603 119.051 381.401 118.243 380.941 117.653C380.504 117.086 379.472 116.622 379.466 116.145C379.479 113.474 377.036 112.695 375.705 111.186C373.744 108.969 371.218 107.285 368.928 105.383C365.841 102.8 362.336 101.032 358.321 100.393C357.078 100.194 355.881 99.7807 354.66 99.4865C352.507 98.9659 350.33 98.4457 348.2 97.8533C347.936 97.7852 347.741 97.43 347.378 97.0532C347.07 97.1764 346.714 97.2762 346.334 97.4242C345.859 97.6212 345.409 97.8178 344.958 98.0145C344.151 98.335 341.923 97.5533 341.461 96.82C341.266 96.5125 341.045 96.0622 340.758 95.9706C339.849 95.7439 338.916 95.5889 337.986 95.5533C335.79 95.4625 333.582 96.2305 331.974 97.3008C328.215 99.83 325.614 103.37 325.534 108.236C325.539 108.618 325.617 109.118 325.43 109.382C323.531 111.935 324.401 114.643 325.198 117.232C325.596 118.539 325.608 119.397 324.74 120.529C323.192 122.529 322.076 124.786 321.757 127.723C323.772 126.791 325.455 125.982 327.186 125.22C328.134 124.802 329.156 124.479 330.153 124.156C331.768 123.634 332.422 124.412 332.824 125.934C333.301 127.812 333.732 129.809 334.731 131.394C335.875 133.192 337.494 134.769 339.203 135.987C339.973 136.549 341.517 136.052 342.709 135.965C343.733 135.904 344.164 136.018 343.703 137.24C343.311 138.247 343.158 139.394 343.196 140.467C343.292 142.302 343.506 144.136 343.84 145.944C345.655 155.341 347.376 164.763 347.406 174.422C347.39 175.019 347.827 175.633 348.121 176.202C348.366 176.723 348.92 177.169 348.975 177.693C349.188 179.431 349.546 181.263 349.306 182.96C349.043 184.752 351.016 186.085 350.015 188.006C349.783 188.463 350.703 189.548 350.19 190.461C350.143 190.533 350.336 190.721 350.41 190.887C350.901 191.954 351.773 193.016 351.812 194.113C352.011 198.451 353.636 202.365 355.213 206.28C355.854 207.869 356.329 209.557 358.129 210.392C358.465 210.554 358.569 211.245 358.789 211.671C358.985 212.05 359.11 212.502 359.353 212.856C360.107 213.967 360.932 215.03 361.709 216.141C362.9 217.843 364.044 219.569 365.211 221.271C365.356 221.483 365.644 221.623 365.885 221.763C367.4 222.769 369.269 223.436 370.313 224.806C372.374 227.45 375.861 227.834 377.828 230.528C378.274 229.949 378.508 229.636 378.766 229.299C379.924 230.286 380.939 231.346 382.142 232.093C383.199 232.747 384.491 232.993 385.642 233.503C387.321 234.244 389.389 233.716 390.935 235.223C391.394 235.694 392.66 235.844 393.301 235.55C395.127 234.739 404.483 237.145 406.989 239.116C407.134 239.233 407.42 239.23 407.994 239.342C407.987 238.865 408.005 238.34 407.993 237.458C409.584 238.749 410.741 239.711 411.898 240.626C413.031 241.542 414.188 242.481 415.142 240.632C416.342 241.213 417.404 242.177 418.405 242.14C419.954 242.048 420.871 242.847 421.977 243.525C422.671 243.73 423.392 244.174 424.133 244.307Z" fill="#045A2E"/>
<path fill-rule="evenodd" clip-rule="evenodd" d="M312.186 154.678C314.26 154.651 316.335 154.624 318.409 154.597C319.172 154.587 319.537 155.083 319.574 156.085C319.628 158.469 319.611 160.83 319.141 163.174C318.511 166.092 317.423 168.61 315.877 170.777C314.401 172.823 312.655 174.3 310.639 175.114C309.405 175.607 308.12 175.886 306.833 175.95C303.091 176.094 299.346 176.071 295.602 176.12C294.505 176.134 294.165 175.638 294.122 174.183C294.044 171.847 294.157 169.532 294.653 167.308C295.351 164.127 296.58 161.439 298.412 159.221C299.985 157.317 301.78 156.006 303.846 155.287C305.152 154.817 306.486 154.728 307.822 154.735C309.253 154.74 310.707 154.697 312.186 154.678Z" fill="#045A2E"/>
<path fill-rule="evenodd" clip-rule="evenodd" d="M292.57 128.319C293.999 126.321 295.452 124.322 296.905 122.324C297.42 121.601 297.945 121.595 298.502 122.279C299.788 123.932 301.026 125.609 301.912 127.744C303.02 130.401 303.558 133.256 303.597 136.284C303.634 139.146 303.169 141.871 302.176 144.364C301.576 145.898 300.807 147.339 299.941 148.591C297.389 152.273 294.764 155.837 292.164 159.448C291.415 160.507 290.913 160.466 290.113 159.475C288.852 157.893 287.709 156.143 286.871 154.079C285.688 151.161 285.147 148.044 285.271 144.727C285.353 141.864 285.962 139.209 287.004 136.738C287.675 135.156 288.564 133.832 289.525 132.532C290.556 131.135 291.563 129.739 292.57 128.319Z" fill="#045A2E"/>
<path fill-rule="evenodd" clip-rule="evenodd" d="M270.345 214.751C272.228 214.727 274.111 214.631 275.973 214.702C279.838 214.819 283.014 216.948 285.592 220.85C286.882 222.836 287.747 225.138 288.304 227.659C288.811 229.942 288.77 232.28 288.753 234.642C288.76 235.214 288.384 235.648 287.932 235.725C287.765 235.752 287.598 235.73 287.455 235.732C283.664 235.781 279.873 235.902 276.057 235.88C271.501 235.844 267.913 233.219 265.272 228.197C263.707 225.212 263.02 221.858 262.948 218.21C262.941 217.614 262.932 216.994 262.948 216.374C262.959 215.372 263.311 214.89 264.026 214.881C266.124 214.806 268.246 214.779 270.345 214.751Z" fill="#045A2E"/>
<path fill-rule="evenodd" clip-rule="evenodd" d="M280.845 206.004C279.033 206.028 277.222 206.123 275.408 206.051C270.326 205.855 266.586 202.541 264.1 196.658C263.018 194.12 262.6 191.311 262.586 188.402C262.577 187.734 262.569 187.09 262.56 186.423C262.573 185.564 262.948 185.082 263.568 185.074C267.622 185.021 271.698 184.801 275.754 184.963C280.408 185.165 284.024 188.147 286.503 193.529C287.705 196.161 288.339 199.014 288.355 202.115C288.365 202.854 288.351 203.593 288.384 204.356C288.447 205.476 288 205.983 287.213 205.969C285.09 205.949 282.968 205.977 280.845 206.004Z" fill="#045A2E"/>
<path fill-rule="evenodd" clip-rule="evenodd" d="M316.246 184.415C317.104 184.357 317.962 184.369 318.797 184.358C319.537 184.373 319.901 184.869 319.913 185.846C319.992 188.254 319.976 190.64 319.481 192.983C318.739 196.403 317.393 199.283 315.395 201.551C313.045 204.252 310.296 205.624 307.149 205.665C303.381 205.69 299.59 205.763 295.822 205.812C294.844 205.825 294.505 205.376 294.487 204.017C294.405 201.347 294.561 198.745 295.22 196.208C296.107 192.858 297.574 190.12 299.669 187.97C301.128 186.472 302.76 185.425 304.566 184.925C305.374 184.724 306.207 184.546 307.017 184.535C308.996 184.438 310.999 184.46 313.002 184.434C313.122 184.432 313.288 184.382 313.385 184.477L316.246 184.415Z" fill="#045A2E"/>
<path fill-rule="evenodd" clip-rule="evenodd" d="M274.65 155.121C275.08 155.187 275.415 155.254 275.774 155.321C276.323 155.385 276.848 155.402 277.398 155.514C279.264 155.919 280.946 156.947 282.468 158.43C284.4 160.289 285.886 162.678 286.855 165.623C287.526 167.689 287.959 169.878 287.965 172.143C287.976 173.002 287.987 173.86 287.999 174.719C288.011 175.673 287.636 176.202 286.897 176.212C285.967 176.248 285.061 176.236 284.131 176.248C281.389 176.283 278.622 176.319 275.88 176.355C272.876 176.418 270.12 175.404 267.68 173.003C265.482 170.861 263.919 168.068 262.968 164.622C262.266 162.007 262.136 159.314 262.172 156.618C262.186 155.831 262.561 155.325 263.109 155.318L274.078 155.176C274.102 155.175 274.15 155.199 274.246 155.245L274.65 155.121Z" fill="#045A2E"/>
<path fill-rule="evenodd" clip-rule="evenodd" d="M304.792 235.482L302.622 235.511C300.452 235.539 298.306 235.567 296.16 235.595C295.301 235.606 294.937 235.086 294.898 233.942C294.819 231.534 294.907 229.124 295.402 226.804C296.079 223.838 297.213 221.223 298.902 219.078C300.497 217.007 302.363 215.575 304.5 214.832C305.497 214.485 306.544 214.328 307.569 214.291C311.432 214.17 315.295 214.167 319.134 214.117C319.969 214.106 320.309 214.579 320.324 215.7C320.374 217.726 320.4 219.777 320.069 221.785C319.603 224.51 318.729 226.978 317.422 229.141C316.044 231.401 314.325 233.093 312.288 234.216C310.56 235.169 308.752 235.55 306.843 235.456L304.792 235.482Z" fill="#045A2E"/>
<path fill-rule="evenodd" clip-rule="evenodd" d="M292.725 215.39C292.838 224.07 292.927 232.726 293.039 241.406C293.085 244.888 293.13 248.369 293.175 251.851L293.324 263.273C293.336 264.227 293.128 264.778 292.678 264.999C292.014 265.294 291.411 264.777 291.327 263.8C291.324 263.561 291.32 263.299 291.317 263.061L290.727 217.61L290.676 213.723L290.215 178.193L290.031 164.076C290.016 162.931 290.391 162.378 291.107 162.416C291.537 162.458 291.803 162.765 291.905 163.288C291.981 163.597 292.009 163.907 292.012 164.193C292.08 167.579 292.124 170.965 292.168 174.375L292.701 215.39L292.725 215.39ZM291.947 175.666L292.675 213.387C292.652 211.551 292.628 209.715 292.604 207.879C292.468 197.41 292.332 186.966 292.22 176.473C292.216 176.163 292.282 175.805 291.947 175.666Z" fill="#045A2E"/>
<path fill-rule="evenodd" clip-rule="evenodd" d="M268.313 208.768L274.537 208.687C275.3 208.678 275.664 209.174 275.701 210.175C275.756 212.559 275.763 214.944 275.268 217.264C274.662 220.182 273.55 222.7 272.004 224.867C270.528 226.913 268.783 228.391 266.766 229.18C265.556 229.673 264.248 229.952 262.96 230.017C259.218 230.161 255.473 230.138 251.729 230.187C250.632 230.201 250.292 229.704 250.249 228.25C250.171 225.914 250.284 223.599 250.78 221.374C251.454 218.194 252.707 215.506 254.539 213.288C256.112 211.384 257.907 210.072 259.973 209.354C261.279 208.884 262.613 208.795 263.949 208.801C265.404 208.83 266.858 208.787 268.313 208.768Z" fill="#045A2E"/>
<path fill-rule="evenodd" clip-rule="evenodd" d="M248.697 182.405C250.126 180.406 251.579 178.408 253.032 176.41C253.547 175.687 254.072 175.681 254.629 176.365C255.915 178.018 257.153 179.695 258.039 181.83C259.147 184.487 259.685 187.342 259.724 190.37C259.761 193.232 259.296 195.957 258.303 198.45C257.703 199.984 256.934 201.425 256.068 202.677C253.516 206.359 250.891 209.923 248.291 213.534C247.541 214.593 247.04 214.576 246.24 213.561C244.956 211.979 243.836 210.229 242.998 208.165C241.815 205.247 241.274 202.13 241.398 198.813C241.504 195.949 242.089 193.294 243.13 190.824C243.802 189.242 244.691 187.918 245.652 186.618C246.683 185.221 247.69 183.801 248.697 182.405Z" fill="#045A2E"/>
<path fill-rule="evenodd" clip-rule="evenodd" d="M226.495 268.841C228.379 268.817 230.262 268.721 232.123 268.792C235.988 268.909 239.164 271.014 241.743 274.916C243.032 276.902 243.897 279.204 244.455 281.725C244.961 284.008 244.92 286.346 244.903 288.684C244.886 289.256 244.534 289.69 244.082 289.768C243.915 289.794 243.748 289.772 243.605 289.774C239.814 289.823 236.023 289.944 232.207 289.922C227.675 289.885 224.063 287.261 221.422 282.239C219.857 279.254 219.169 275.901 219.098 272.252C219.09 271.656 219.082 271.012 219.074 270.416C219.085 269.414 219.437 268.933 220.152 268.924C222.274 268.896 224.373 268.869 226.495 268.841Z" fill="#045A2E"/>
<path fill-rule="evenodd" clip-rule="evenodd" d="M236.972 260.094C235.16 260.118 233.349 260.213 231.535 260.141C226.453 259.945 222.713 256.655 220.227 250.748C219.145 248.21 218.727 245.401 218.713 242.492C218.704 241.824 218.696 241.18 218.711 240.512C218.724 239.653 219.099 239.171 219.719 239.163C223.773 239.111 227.848 238.891 231.905 239.053C236.558 239.255 240.175 242.237 242.653 247.618C243.856 250.25 244.49 253.104 244.506 256.18C244.515 256.92 244.501 257.659 244.535 258.422C244.597 259.542 244.151 260.049 243.363 260.035C241.217 260.039 239.118 260.067 236.972 260.094Z" fill="#045A2E"/>
<path fill-rule="evenodd" clip-rule="evenodd" d="M272.396 238.502C273.254 238.467 274.112 238.456 274.947 238.445C275.686 238.435 276.05 238.931 276.063 239.933C276.142 242.341 276.126 244.726 275.632 247.093C274.889 250.514 273.543 253.393 271.545 255.661C269.195 258.363 266.447 259.734 263.323 259.775C259.555 259.8 255.764 259.873 251.996 259.922C251.018 259.934 250.679 259.486 250.661 258.127C250.578 255.457 250.736 252.855 251.394 250.318C252.281 246.968 253.748 244.23 255.843 242.104C257.302 240.606 258.934 239.559 260.74 239.059C261.548 238.834 262.381 238.68 263.192 238.669C265.17 238.572 267.174 238.593 269.177 238.567C269.296 238.566 269.462 238.516 269.559 238.61L272.396 238.502Z" fill="#045A2E"/>
<path fill-rule="evenodd" clip-rule="evenodd" d="M230.777 209.207C231.207 209.272 231.542 209.34 231.901 209.407C232.45 209.471 232.999 209.488 233.525 209.6C235.391 210.005 237.073 211.033 238.619 212.515C240.551 214.374 242.037 216.764 243.005 219.709C243.676 221.775 244.11 223.964 244.116 226.229C244.127 227.088 244.162 227.946 244.149 228.805C244.162 229.758 243.787 230.288 243.048 230.321C242.118 230.357 241.212 230.345 240.282 230.357C237.54 230.393 234.773 230.429 232.031 230.465C229.027 230.527 226.271 229.514 223.807 227.113C221.609 224.971 220.046 222.177 219.095 218.731C218.393 216.117 218.263 213.424 218.299 210.728C218.313 209.941 218.688 209.435 219.237 209.428L230.206 209.286C230.23 209.285 230.278 209.309 230.374 209.355L230.777 209.207Z" fill="#045A2E"/>
<path fill-rule="evenodd" clip-rule="evenodd" d="M260.919 289.572L258.749 289.6C256.603 289.628 254.433 289.656 252.287 289.684C251.428 289.695 251.064 289.175 251.025 288.031C250.946 285.623 251.034 283.213 251.528 280.893C252.205 277.927 253.34 275.313 255.029 273.168C256.624 271.096 258.49 269.665 260.627 268.922C261.624 268.575 262.671 268.418 263.696 268.381C267.558 268.259 271.422 268.257 275.261 268.207C276.096 268.196 276.436 268.669 276.45 269.789C276.501 271.816 276.527 273.843 276.195 275.851C275.73 278.576 274.856 281.043 273.548 283.207C272.17 285.467 270.451 287.159 268.415 288.282C266.686 289.235 264.879 289.616 262.969 289.522L260.919 289.572Z" fill="#045A2E"/>
<path fill-rule="evenodd" clip-rule="evenodd" d="M248.876 269.48C248.988 278.16 249.077 286.816 249.19 295.496C249.235 298.978 249.28 302.459 249.326 305.941L249.474 317.363C249.486 318.317 249.279 318.868 248.829 319.089C248.165 319.383 247.562 318.867 247.477 317.89C247.474 317.651 247.471 317.389 247.468 317.151L246.877 271.7L246.827 267.813L246.365 232.283L246.182 218.166C246.167 217.021 246.541 216.468 247.257 216.506C247.687 216.548 247.953 216.855 248.055 217.378C248.131 217.663 248.159 217.997 248.163 218.283C248.231 221.669 248.275 225.055 248.319 228.465L248.852 269.48L248.876 269.48ZM248.073 229.756L248.802 267.477C248.778 265.641 248.754 263.805 248.73 261.969C248.594 251.501 248.458 241.032 248.346 230.564C248.366 230.253 248.409 229.895 248.073 229.756Z" fill="#045A2E"/>
<path fill-rule="evenodd" clip-rule="evenodd" d="M345.155 243.448L351.379 243.367C352.142 243.357 352.506 243.853 352.543 244.854C352.598 247.239 352.605 249.623 352.11 251.943C351.504 254.861 350.416 257.379 348.846 259.546C347.371 261.592 345.625 263.07 343.608 263.859C342.374 264.352 341.066 264.632 339.779 264.696C336.036 264.84 332.292 264.841 328.548 264.866C327.451 264.88 327.111 264.408 327.068 262.93C326.99 260.593 327.103 258.302 327.598 256.054C328.273 252.897 329.549 250.185 331.357 247.968C332.93 246.063 334.726 244.752 336.791 244.033C338.097 243.563 339.432 243.474 340.791 243.481C342.222 243.486 343.701 243.467 345.155 243.448Z" fill="#045A2E"/>
<path fill-rule="evenodd" clip-rule="evenodd" d="M325.541 217.061C326.993 215.063 328.422 213.041 329.875 211.066C330.414 210.344 330.915 210.337 331.472 211.022C332.758 212.674 334.02 214.375 334.882 216.487C335.99 219.144 336.528 221.998 336.567 225.027C336.605 227.888 336.139 230.613 335.17 233.106C334.57 234.641 333.801 236.082 332.935 237.333C330.383 241.015 327.759 244.579 325.158 248.19C324.408 249.226 323.907 249.208 323.107 248.217C321.847 246.636 320.703 244.885 319.865 242.821C318.682 239.903 318.141 236.786 318.265 233.469C318.371 230.606 318.956 227.951 319.998 225.481C320.669 223.898 321.558 222.575 322.519 221.298C323.526 219.878 324.534 218.481 325.541 217.061Z" fill="#045A2E"/>
<path fill-rule="evenodd" clip-rule="evenodd" d="M303.314 303.523C305.198 303.498 307.081 303.402 308.941 303.45C312.807 303.566 315.983 305.695 318.538 309.597C319.851 311.584 320.692 313.886 321.25 316.407C321.756 318.69 321.715 321.028 321.698 323.39C321.682 323.962 321.329 324.396 320.877 324.473C320.711 324.499 320.544 324.478 320.377 324.48C316.585 324.529 312.795 324.65 309.002 324.604C304.47 324.567 300.858 321.943 298.217 316.921C296.652 313.912 295.964 310.559 295.893 306.934C295.885 306.338 295.877 305.718 295.869 305.098C295.856 304.097 296.208 303.615 296.947 303.605C299.117 303.553 301.215 303.526 303.314 303.523Z" fill="#045A2E"/>
<path fill-rule="evenodd" clip-rule="evenodd" d="M313.814 294.752C312.001 294.776 310.19 294.895 308.376 294.799C303.294 294.603 299.554 291.313 297.069 285.406C295.987 282.892 295.569 280.083 295.555 277.174C295.546 276.506 295.514 275.862 295.529 275.194C295.542 274.336 295.893 273.854 296.513 273.846C300.591 273.793 304.666 273.549 308.723 273.735C313.376 273.937 316.992 276.919 319.471 282.277C320.674 284.909 321.307 287.763 321.324 290.863C321.333 291.602 321.319 292.341 321.353 293.104C321.415 294.224 320.944 294.731 320.157 294.718C318.058 294.697 315.936 294.749 313.814 294.752Z" fill="#045A2E"/>
<path fill-rule="evenodd" clip-rule="evenodd" d="M349.237 273.159C350.095 273.124 350.954 273.113 351.789 273.126C352.528 273.117 352.892 273.613 352.905 274.614C352.96 277.022 352.968 279.407 352.473 281.751C351.731 285.171 350.409 288.05 348.387 290.318C346.037 293.02 343.289 294.415 340.141 294.432C336.373 294.458 332.581 294.531 328.814 294.58C327.836 294.592 327.496 294.12 327.455 292.785C327.396 290.114 327.53 287.513 328.188 284.976C329.051 281.602 330.542 278.888 332.613 276.738C334.072 275.241 335.704 274.194 337.51 273.693C338.318 273.468 339.151 273.314 339.962 273.304C341.964 273.23 343.944 273.228 345.947 273.202C346.066 273.2 346.232 273.151 346.329 273.245L349.237 273.159Z" fill="#045A2E"/>
<path fill-rule="evenodd" clip-rule="evenodd" d="M307.619 243.867C308.049 243.933 308.384 244 308.742 244.043C309.292 244.107 309.84 244.124 310.366 244.237C312.232 244.642 313.915 245.669 315.437 247.152C317.369 249.035 318.855 251.424 319.823 254.345C320.518 256.411 320.927 258.576 320.934 260.889C320.945 261.748 320.956 262.607 320.967 263.441C320.979 264.395 320.605 264.925 319.89 264.958C318.96 264.994 318.029 264.982 317.123 264.994C314.381 265.029 311.615 265.041 308.849 265.101C305.868 265.164 303.112 264.15 300.648 261.749C298.45 259.607 296.888 256.838 295.937 253.368C295.235 250.777 295.104 248.06 295.141 245.364C295.155 244.577 295.53 244.072 296.078 244.064C299.75 244.017 303.399 243.969 307.071 243.922C307.095 243.921 307.143 243.944 307.239 243.967L307.619 243.867Z" fill="#045A2E"/>
<path fill-rule="evenodd" clip-rule="evenodd" d="M337.761 324.229L335.591 324.257L329.129 324.341C328.27 324.352 327.906 323.832 327.867 322.664C327.764 320.257 327.875 317.846 328.37 315.526C329.023 312.56 330.182 309.946 331.871 307.801C333.466 305.729 335.331 304.298 337.468 303.554C338.466 303.208 339.513 303.051 340.538 303.014C344.4 302.892 348.264 302.89 352.103 302.84C352.914 302.829 353.278 303.302 353.292 304.422C353.342 306.449 353.369 308.499 353.037 310.483C352.572 313.208 351.697 315.676 350.39 317.84C348.988 320.1 347.293 321.815 345.281 322.939C343.552 323.891 341.744 324.249 339.835 324.178L337.761 324.229Z" fill="#045A2E"/>
<path fill-rule="evenodd" clip-rule="evenodd" d="M325.694 304.139C325.806 312.795 325.895 321.476 326.008 330.156C326.053 333.637 326.099 337.119 326.144 340.6C326.193 344.415 326.243 348.207 326.292 352.022C326.305 353 326.097 353.527 325.647 353.748C324.983 354.067 324.38 353.526 324.296 352.549C324.293 352.311 324.29 352.072 324.286 351.81L323.696 306.359L323.645 302.473L323.183 266.918C323.122 262.22 323.061 257.499 323 252.801C322.985 251.68 323.359 251.103 324.075 251.166C324.505 251.184 324.772 251.514 324.874 252.038C324.949 252.347 324.977 252.633 324.981 252.943C325.049 256.328 325.093 259.715 325.137 263.125L325.67 304.14L325.694 304.139ZM324.915 264.415L325.668 302.136C325.644 300.3 325.62 298.464 325.596 296.628C325.46 286.159 325.324 275.691 325.212 265.222C325.184 264.912 325.251 264.554 324.915 264.415Z" fill="#045A2E"/>
<path fill-rule="evenodd" clip-rule="evenodd" d="M392.586 222.94C392.586 222.94 393.588 230.32 394.783 232.356C395.978 234.415 396.01 236.848 396.805 237.433C397.599 238.019 400.752 242.009 401.183 244.007C401.591 246.029 401.59 245.957 401.246 248.847C400.878 251.738 399.116 262.994 399.116 262.994L404.987 263.276L407.407 243.926C407.407 243.926 408.531 240.477 410.851 239.135C413.171 237.793 414.745 239.681 415.495 236.785C416.244 233.889 422.739 232.66 418.885 231.518C415.054 230.375 418.461 226.42 418.461 226.42C418.461 226.42 408.896 220.867 406.25 220.973C403.604 221.103 392.586 222.94 392.586 222.94Z" fill="#045A2E"/>
<path fill-rule="evenodd" clip-rule="evenodd" d="M419.328 230.584C419.328 230.584 420.401 237.94 421.668 240.022C422.959 242.081 422.991 244.513 423.833 245.098C424.675 245.684 428.09 249.67 428.545 251.667C429.001 253.665 429 253.617 428.608 256.508C428.217 259.399 426.288 270.657 426.288 270.657L432.612 270.933L435.27 251.58C435.27 251.58 436.489 248.106 438.976 246.785C441.463 245.441 443.18 247.327 444.001 244.431C444.799 241.534 451.794 240.299 447.677 239.16C443.56 238.021 447.23 234.062 447.23 234.062C447.23 234.062 436.926 228.495 434.065 228.628C431.204 228.713 419.328 230.584 419.328 230.584Z" fill="#045A2E"/>
<path fill-rule="evenodd" clip-rule="evenodd" d="M211.39 60.9035C211.39 60.9035 206.824 62.0036 204.493 62.4645C202.172 62.9243 201.733 64.3867 201.316 66.0273C200.899 67.6678 199.793 74.7046 196.934 76.3314C194.067 77.9593 192.763 78.2425 191.152 78.0657C189.54 77.889 194.84 87.3997 197.814 104.022C200.798 120.651 202.603 123.489 201.877 136.769C201.152 150.059 198.212 171.304 187.636 186.013C177.071 200.729 170.375 204.037 164.328 213.195C160.384 219.172 156.266 223.481 153.873 225.747C152.758 228.05 153.675 229.964 155.711 235.177C159.041 243.714 165.11 250.069 171.385 256.191C173.688 258.436 177.396 259.436 180.706 260.213C183.188 260.791 185.823 260.682 188.377 260.881C188.943 261.228 189.534 260.805 190.103 260.953C190.894 262.123 190.571 263.726 191.588 264.814C192.606 266.291 194.533 265.861 195.786 266.813C196.702 267.516 198.535 267.883 197.221 269.731C196.76 270.03 196.214 270.069 195.717 270.219C194.644 270.465 193.667 270.004 192.663 269.772C192.015 269.498 191.364 269.269 190.759 268.89C188.891 267.714 187.188 267.756 185.459 269.31C184.529 270.136 183.451 271.015 181.99 270.667C181.555 270.728 181.1 270.783 180.665 270.844C174.127 271.937 169.075 269.147 164.601 264.778C163.036 263.258 161.285 261.924 159.72 260.413C157.982 258.733 156.012 258.5 153.918 259.348C151.057 260.506 148.258 261.809 145.264 263.136C145.446 260.737 146.964 259.389 148.35 257.984C149.445 256.868 150.446 255.654 151.647 254.669C153.965 252.755 153.728 250.407 152.754 248.093C150.597 242.922 147.908 238.221 142.331 235.801C139.051 234.379 135.941 232.557 132.462 231.583C131.246 231.241 130.267 231.368 129.192 232.121C125.408 234.772 122.216 237.83 121.148 242.558C120.438 247.252 122.116 251.433 123.874 255.613C125.194 258.771 126.48 261.951 127.679 265.159C128.181 266.481 128.944 266.814 130.182 266.367C131.645 265.83 133.156 265.395 134.548 264.722C136.7 263.677 138.834 264.297 140.953 264.63C142.049 264.805 142.69 265.623 142.268 266.848C141.39 267.288 140.753 265.603 139.968 266.583C139.457 267.222 138.82 268.239 139.003 268.858C139.264 269.749 140.368 269.164 141.079 269.061C144.51 268.585 147.617 267.073 150.824 265.865C152.735 265.147 159.514 266.962 160.733 268.532C160.946 268.805 161.149 269.287 161.057 269.578C160.905 270.039 160.372 269.895 160.053 269.717C157.477 268.282 155.418 269.126 152.984 270.521C149.621 272.471 145.594 272.873 141.896 274.059C139.741 274.472 137.585 274.875 135.43 275.288C134.674 275.921 133.179 275.812 133.368 277.379C134.278 280.369 131.836 279.75 130.352 280.182C128.314 281.267 126.521 280.335 124.767 279.425C123.91 278.986 123.18 278.324 122.452 277.679C122.27 277.521 122.137 277.32 122.047 277.096C120.313 275.822 118.852 274.199 117.373 272.715C115.285 270.607 113.852 271.312 111.957 272.543C111.379 272.92 111.055 274.061 110.178 273.606C109.215 273.108 110.184 272.223 110.077 271.486C109.76 269.374 110.441 267.295 111.953 266.046C113.359 264.884 113.778 263.631 113.715 262.283C113.689 261.69 113.569 261.072 113.403 260.441C113.319 260.117 113.235 259.793 113.151 259.469C111.745 252.887 110.471 249.128 109.716 247.212C109.261 246.056 108.988 245.583 108.988 245.583C102.271 240.074 71.5917 223.457 64.425 221.346C57.2484 219.226 56.8468 215.886 56.8468 215.886C45.9646 216.092 48.3381 209.526 48.3381 209.526C47.5543 209.846 45.1872 209.625 43.7209 205.771C42.2535 201.908 46.2826 199.643 46.2826 199.643C44.1204 199.171 39.9972 198.022 39.4729 197.118C38.9496 196.224 42.4723 193.505 42.4723 193.505C42.4723 193.505 39.3789 192.503 37.9073 190.936C36.4358 189.369 40.4691 186.688 40.4691 186.688C31.7989 185.074 34.9248 181.309 34.9248 181.309C34.9248 181.309 37.7561 178.177 32.1437 178.02C26.5324 177.872 25.1737 175.74 22.1454 167.312C19.1171 158.883 23.7586 155.85 23.7586 155.85C16.1181 149.195 22.5955 143.618 22.5955 143.618C22.5955 143.618 14.959 137.298 9.50973 129.703C4.05152 122.109 12.2767 114.984 13.0659 114.709C13.854 114.424 15.674 114.305 10.261 109.642C4.83792 104.972 9.10752 100.799 9.10752 100.799C5.51764 99.1248 5.21587 95.8627 5.29183 92.736C5.3767 89.6083 6.24245 89.1428 9.48667 87.1895C12.7409 85.244 15.3074 79.9835 15.3074 79.9835C15.3074 79.9835 7.76368 75.9384 18.8548 67.5477C29.937 59.1581 41.4936 72.1548 45.871 82.6349C50.2473 93.1062 50.0556 94.5932 57.4398 104.152C64.8239 113.71 99.2524 119.421 112.829 115.846C126.396 112.264 136.261 100.586 147.502 74.3488C158.734 48.1123 180.048 47.4929 180.048 47.4929C180.048 47.4929 177.869 43.571 181.075 40.8453C184.271 38.1205 186.593 37.9679 186.995 42.8084C186.995 42.8084 187.145 40.224 188.374 40.0762C189.612 39.9274 189.828 42.775 190.08 43.5941C190.08 43.5941 190.891 40.4152 192.319 40.1171C193.747 39.8189 194.191 44.0397 194.191 44.0397C194.191 44.0397 194.779 42.8395 195.274 42.5993C195.769 42.359 195.955 44.2072 195.955 44.2072C195.955 44.2072 196.853 43.7106 198.91 45.9393C200.967 48.1591 201.769 49.6441 202.093 51.069C202.418 52.4938 202.583 52.3566 203.457 52.7936C204.281 53.2548 209.705 55.8288 211.39 60.9035Z" fill="#045A2E"/>
<path fill-rule="evenodd" clip-rule="evenodd" d="M69.5204 157.489C69.3694 156.233 68.2429 155.356 66.978 155.509L62.7468 156.017C61.4998 156.167 60.6142 157.295 60.7641 158.542C60.9108 159.762 62.0384 160.648 63.2855 160.498L64.5504 160.346C63.9996 162.454 61.2301 163.32 59.7804 160.657C56.6828 154.885 60.9708 143.047 63.4182 147.921C64.1294 149.327 63.6735 151.848 66.0938 151.386C67.3056 151.168 68.1025 149.979 67.8845 148.767C67.8791 148.722 66.4983 141.144 58.7785 143.527C56.1807 144.318 54.6912 147.036 54.1167 150.377C53.7669 152.353 53.7496 154.614 54.0343 156.757C54.302 158.984 54.9253 161.087 55.8222 162.759C57.1361 165.195 59.0737 166.805 61.6477 166.794C63.7578 166.757 65.3002 166.283 66.3797 165.566C66.8683 166.022 67.5614 166.3 68.274 166.215C69.4944 166.068 70.3799 164.94 70.23 163.693L69.5308 157.876C69.5276 157.85 69.5222 157.805 69.519 157.778C69.4973 157.673 69.5332 157.596 69.5204 157.489ZM77.8147 140.19C76.3717 140.364 75.2413 141.259 74.4302 142.63C71.6754 147.227 71.0558 157.558 71.2902 162.816C71.3576 164.805 75.198 166.232 75.451 162.849C75.5646 161.163 75.5092 158.522 75.5252 156.55C75.5608 156.546 75.5932 156.515 75.5932 156.515C76.9251 156.093 78.3018 155.819 79.6736 155.654C80.5287 155.551 81.3982 155.492 82.2262 155.465C83.0956 158.487 83.7814 161.712 83.7868 161.756C84.0047 162.968 85.1537 163.806 86.3665 163.597C87.6083 163.402 88.4161 162.23 88.2427 161.013C88.2053 160.927 84.6291 139.371 77.8147 140.19ZM79.1339 151.165C77.9403 151.308 76.7285 151.526 75.5976 151.816C75.7266 148.303 76.1247 145.526 77.4473 145.403C78.4539 145.282 79.7169 147.896 80.8129 150.999C80.2474 151.031 79.704 151.096 79.1339 151.165ZM102.084 158.96C100.129 154.578 96.9015 162.457 95.3576 159.01C93.2665 154.318 93.55 145.401 92.9745 140.013C92.6999 137.127 87.8641 137.491 88.2 140.587C88.7606 146.077 88.557 154.08 90.6966 158.874C92.5246 162.956 95.6655 164.277 100.96 161.942C102.091 161.426 102.583 160.102 102.084 158.96ZM115.472 157.351C113.517 152.968 110.29 160.848 108.746 157.4C106.655 152.709 106.938 143.792 106.363 138.403C106.088 135.518 101.252 135.882 101.579 138.978C102.14 144.468 101.936 152.472 104.076 157.266C105.904 161.348 109.045 162.669 114.34 160.334C115.479 159.817 115.962 158.494 115.472 157.351ZM123.806 155.265L123.4 155.268L121.831 138.613L122.58 138.523C123.803 138.403 124.422 137.76 124.309 136.526C124.158 135.27 123.059 134.39 121.812 134.54L116.025 135.118C114.755 135.226 113.887 136.351 113.99 137.577C114.133 138.77 115.394 139.188 116.579 139.118L118.389 155.383L118.128 155.387C116.907 155.534 116.016 156.617 116.141 157.876C116.287 159.096 117.415 159.982 118.635 159.835L124.38 159.217C125.636 159.066 126.518 157.984 126.366 156.719C126.23 155.507 125.021 155.146 123.806 155.265ZM141.323 140.49C139.949 135.378 137.267 132.239 132.09 133.594C124.889 135.48 127.648 150.321 128.277 155.775C128.424 156.996 129.551 157.881 130.798 157.732C132.019 157.585 133.284 156.005 133.137 154.785C132.792 151.916 130.092 138.777 133.229 137.957C134.99 137.501 136.098 139.799 136.839 142.583C137.744 146.505 137.869 152.354 137.969 154.385C138.074 155.637 139.552 157.032 140.82 156.906C142.046 156.804 142.967 155.745 142.887 154.48C142.566 150.606 142.335 144.326 141.323 140.49ZM151.152 131.374C149.709 131.548 148.578 132.443 147.767 133.815C145.012 138.411 144.393 148.742 144.627 154C144.695 155.989 148.535 157.416 148.788 154.033C148.902 152.347 148.846 149.706 148.862 147.735C148.898 147.73 148.93 147.699 148.93 147.699C150.262 147.277 151.639 147.003 153.011 146.838C153.866 146.735 154.735 146.676 155.563 146.649C156.433 149.671 157.119 152.896 157.124 152.94C157.342 154.152 158.491 154.99 159.704 154.781C160.945 154.587 161.753 153.414 161.58 152.197C161.533 152.112 157.966 130.555 151.152 131.374ZM152.471 142.349C151.277 142.492 150.066 142.71 148.935 143C149.064 139.487 149.462 136.71 150.784 136.587C151.791 136.466 153.054 139.08 154.15 142.183C153.576 142.216 153.041 142.28 152.471 142.349ZM171.118 140.433C170.27 139.992 169.524 139.504 168.947 138.986C167.891 138.019 167.22 135.524 167.924 134.084C168.773 132.428 171.916 130.984 171.843 133.984C171.804 135.841 173.278 136.603 174.759 135.847C175.857 135.281 176.317 133.916 175.751 132.818C175.37 132.132 174.906 131.501 174.288 130.952C173.389 130.156 172.224 129.564 170.957 129.319C167.873 128.696 164.85 129.936 163.477 132.721C161.798 136.05 163.283 139.983 165.945 142.356C166.792 143.085 167.862 143.797 169.142 144.447C170.719 145.234 171.652 146.007 172.134 146.708C173.563 148.895 168.335 155.099 166.831 147.996C166.128 146.96 164.705 146.698 163.7 147.361C162.647 148.066 162.38 149.453 163.056 150.492C163.982 151.881 165.313 152.959 166.805 153.566C168.311 154.216 169.923 154.402 171.505 153.95C174.156 153.224 176.698 152.277 177.339 148.586C177.841 144.866 174.171 141.927 171.118 140.433Z" fill="white"/>
<path fill-rule="evenodd" clip-rule="evenodd" d="M89.4299 193.915C87.4842 189.531 84.2477 197.412 82.7037 193.965C80.6126 189.273 80.8962 180.356 80.3217 174.976C80.0471 172.091 75.2113 172.455 75.5383 175.551C76.0989 181.041 75.8953 189.045 78.0349 193.839C79.8629 197.921 83.0038 199.242 88.2985 196.907C89.4383 196.39 89.9297 195.066 89.4299 193.915ZM97.7727 191.828L97.3665 191.832L95.7981 175.176L96.5463 175.086C97.7699 174.966 98.3883 174.323 98.2762 173.089C98.1241 171.824 97.0254 170.953 95.7783 171.103L89.9922 171.681C88.722 171.789 87.8542 172.914 87.9564 174.14C88.0988 175.325 89.3609 175.751 90.5453 175.681L92.356 191.946L92.0944 191.95C90.8741 192.097 89.9831 193.18 90.1074 194.439C90.2541 195.66 91.3817 196.545 92.602 196.398L98.3471 195.78C99.612 195.628 100.485 194.547 100.333 193.282C100.197 192.079 98.9884 191.718 97.7727 191.828ZM114.617 184.164C113.819 181.811 112.392 180.537 110.796 179.889C111.182 178.893 111.356 177.634 111.163 176.031C110.908 173.685 109.941 172.175 108.656 171.263C107.902 170.703 107.022 170.375 106.155 170.226C105.376 170.058 104.583 170.081 103.862 170.168C102.214 170.366 100.649 171.25 100.268 171.765C99.3672 172.994 101.824 190.726 102.04 192.3C102.121 193.194 102.763 194.029 103.706 194.277C105.882 194.865 107.942 194.789 109.694 194.181C110.952 193.741 112.062 193.056 112.952 192.19C113.82 191.29 114.479 190.154 114.808 188.913C115.227 187.434 115.18 185.841 114.617 184.164ZM103.904 174.428C104.128 174.112 107.055 172.449 107.265 174.494C107.494 176.4 105.52 178.996 104.553 179.22C104.158 176.539 103.881 174.458 103.904 174.428ZM106.237 190.151C106.011 188.651 105.625 186.339 105.26 183.907C112.654 183.018 112.166 192.863 106.237 190.151ZM128.849 176.119C128.862 174.048 128.241 172.261 127.285 170.921C126.412 169.752 125.262 168.905 124.036 168.402C122.734 167.872 121.335 167.733 120.016 168.036C118.742 168.343 117.558 169.018 116.637 170.15C114.669 172.573 115.067 175.652 116.571 185.99C116.792 187.445 117.017 189.099 117.269 190.813C117.415 192.033 118.543 192.919 119.785 192.724C121.005 192.577 121.886 191.414 121.696 190.208C121.483 188.661 121.325 187.343 121.129 186.092L125.384 191.193C126.194 192.143 127.582 192.266 128.543 191.463C129.512 190.651 129.634 189.263 128.823 188.303L123.58 183.105C124.632 182.762 125.512 182.258 126.245 181.664C128.032 180.22 128.819 178.273 128.849 176.119ZM123.438 177.031C123.436 179.426 121.666 180.407 120.184 179.284C119.647 175.192 119.626 173.667 120.128 173.029C121.701 171.077 123.46 174.508 123.438 177.031ZM144.471 178.506C143.245 178.608 142.361 179.745 142.462 180.962C143.909 189.915 131.868 189.952 139.05 180.396C139.404 179.956 139.547 179.414 139.51 178.804C139.409 177.588 138.312 176.662 137.052 176.777C136.339 176.863 135.904 176.545 135.71 176.135C134.109 172.514 139.907 169.63 140.507 171.844C140.797 173.047 142.049 173.773 143.247 173.439C144.451 173.15 145.168 171.898 144.852 170.698C144.509 169.429 143.83 167.911 142.237 166.91C141.138 166.193 139.632 165.768 137.681 165.922C134.409 166.215 132.158 168.989 131.328 172.08C131.038 173.055 130.95 174.05 130.96 175.034C131.009 176.049 131.206 177.083 131.598 177.939C132.093 179.045 132.819 179.979 133.846 180.552C132.893 182.699 132.196 185.621 133.74 188.164C134.647 189.618 136.215 190.559 137.995 190.86C139.208 191.031 140.508 190.947 141.739 190.51C142.996 190.069 144.165 189.269 145.119 188.106C146.483 186.37 147.304 183.886 146.97 180.501C146.808 179.228 145.718 178.356 144.471 178.506ZM157.271 175.54C156.423 175.1 155.678 174.611 155.091 174.094C154.035 173.127 153.365 170.633 154.069 169.193C154.918 167.536 158.06 166.092 157.987 169.092C157.948 170.949 159.423 171.712 160.904 170.955C162.002 170.39 162.461 169.024 161.895 167.926C161.515 167.24 161.049 166.6 160.433 166.06C159.533 165.265 158.369 164.673 157.101 164.427C154.017 163.804 150.994 165.044 149.621 167.83C147.943 171.158 149.428 175.091 152.09 177.464C152.938 178.202 154.007 178.905 155.287 179.555C156.864 180.342 157.797 181.115 158.279 181.816C159.707 184.003 154.48 190.207 152.976 183.105C152.273 182.068 150.85 181.806 149.845 182.469C148.791 183.174 148.524 184.561 149.2 185.601C150.126 186.989 151.458 188.067 152.949 188.674C154.456 189.333 156.068 189.51 157.649 189.058C160.3 188.333 162.843 187.385 163.484 183.694C163.994 179.973 160.333 177.033 157.271 175.54Z" fill="white"/>
</svg>
