<svg width="237" height="236" viewBox="0 0 237 236" fill="none" xmlns="http://www.w3.org/2000/svg">
<path fill-rule="evenodd" clip-rule="evenodd" d="M34.2641 113.206C27.6998 108.449 20.5665 106.018 14.7487 107.807C4.52899 110.944 -1.64836 130.814 0.386478 144.771C2.42132 158.733 14.1751 183.183 36.8088 171.479C36.8088 171.479 40.8557 169.945 44.9481 166.267L34.2641 113.206Z" fill="#045A2E"/>
<path d="M40.3781 182.995L32.0156 157.653L27.9551 145.344" stroke="#303030" stroke-width="8.7425" stroke-miterlimit="10" stroke-linecap="round"/>
<path d="M12.7871 152.402L32.0202 157.656" stroke="#303030" stroke-width="8.7425" stroke-miterlimit="10" stroke-linecap="round"/>
<path d="M35.0254 166.757L38.435 157.652" stroke="#303030" stroke-width="8.7425" stroke-miterlimit="10" stroke-linecap="round"/>
<path fill-rule="evenodd" clip-rule="evenodd" d="M189.865 110.008C197.089 103.953 205.374 100.562 211.966 102.588C222.181 105.729 228.363 125.599 226.328 139.556C224.293 153.518 212.539 177.972 189.906 166.264C189.906 166.264 186.928 165.135 183.496 162.495L189.865 110.008Z" fill="#045A2E"/>
<path fill-rule="evenodd" clip-rule="evenodd" d="M110.906 206.343C110.906 206.343 19.4699 203.721 38.1886 92.1374C48.6724 48.7047 79.1494 7.14295 110.906 6.01855C142.657 4.89871 179.353 54.6954 187.219 95.8793C195.081 137.072 189.746 207.914 110.906 206.343Z" fill="white" stroke="#F89B36" stroke-width="11" stroke-miterlimit="10"/>
<path d="M187.574 177.741L195.932 152.399L199.993 140.09" stroke="#303030" stroke-width="8.7425" stroke-miterlimit="10" stroke-linecap="round"/>
<path d="M215.163 147.148L195.93 152.397" stroke="#303030" stroke-width="8.7425" stroke-miterlimit="10" stroke-linecap="round"/>
<path d="M192.925 161.507L189.516 152.398" stroke="#303030" stroke-width="8.7425" stroke-miterlimit="10" stroke-linecap="round"/>
<path fill-rule="evenodd" clip-rule="evenodd" d="M111.297 196.456C111.297 196.456 28.788 194.089 45.6858 93.4029C55.1453 54.2083 82.6498 16.7072 111.297 15.6966C139.953 14.6814 173.061 59.6164 180.158 96.7852C187.251 133.95 178.938 206.257 111.297 196.456Z" fill="white" stroke="#F89B36" stroke-width="6" stroke-miterlimit="10"/>
<path fill-rule="evenodd" clip-rule="evenodd" d="M51.8633 178.804C53.1971 176.209 57.2167 168.343 59.9116 166.982C64.0678 164.883 68.1056 162.548 72.33 160.568C72.6806 160.408 72.9355 160.422 73.2951 160.581C75.685 161.656 78.166 162.166 80.7608 161.515C83.3237 160.877 85.5633 159.543 87.7074 158.046C88.2218 157.691 88.3538 157.759 88.5678 158.333C89.4054 160.577 90.6345 162.557 92.4099 164.209C93.2748 165.015 94.1078 165.284 95.2914 164.961C99.3065 163.873 103.103 162.493 105.484 158.683C106.426 161.847 108.379 164.219 110.901 166.258C112.435 167.496 113.819 167.523 115.449 166.613C117.429 165.498 119.204 164.118 120.898 162.625C121.972 161.674 123.01 160.672 124.098 159.657C124.157 159.798 124.193 159.899 124.23 159.994C125.541 163.695 127.881 166.581 131.099 168.798C131.491 169.071 131.841 169.162 132.306 169.003C136.68 167.51 139.662 164.642 141.009 160.167C141.055 160.008 141.064 159.839 141.228 159.721C141.833 160.663 142.421 161.578 143.017 162.498C144.815 165.293 147.387 166.882 150.646 167.46C151.375 167.587 151.83 167.423 152.299 166.909C153.992 165.065 155.003 162.839 155.872 160.54C156.009 160.172 156.15 159.798 156.355 159.252C156.646 161.378 156.897 163.304 157.179 165.229C157.516 167.478 157.593 169.759 157.889 172.017C157.147 173.041 162.564 181.085 161.74 182.036C161.585 182.213 155.076 175.203 155.003 175.449C152.882 176.059 150.706 176.459 148.552 176.924C144.71 177.757 140.845 178.485 136.967 179.123C133.453 179.701 129.934 180.206 126.392 180.638C122.81 181.066 119.218 181.403 115.622 181.635C110.66 181.963 105.684 182.018 100.713 181.904C98.2458 181.845 95.7694 181.708 93.3067 181.512C90.0154 181.253 86.7333 180.925 83.4602 180.52C78.3435 179.887 73.2542 179.068 68.1921 178.103L51.8633 178.804Z" fill="#F89B36"/>
<path fill-rule="evenodd" clip-rule="evenodd" d="M108.857 71.1033C108.853 73.3202 110.587 75.1001 112.772 75.1183C114.976 75.132 116.824 73.3293 116.833 71.1579C116.837 68.9637 115.012 67.1337 112.822 67.1292C110.651 67.1246 108.862 68.9182 108.857 71.1033ZM166.347 158.137C166.284 158.51 166.088 158.829 165.915 159.157C165.086 159.18 164.267 159.23 163.429 159.152C160.011 158.82 157.539 157.227 156.255 153.972C156.15 153.699 156.023 153.612 155.736 153.603C154.871 153.571 154.871 153.558 154.871 154.436C154.871 158.201 153.801 161.574 151.261 164.437C150.861 164.888 150.469 164.97 149.941 164.852C147.797 164.374 146.213 163.094 144.938 161.369C143.573 159.512 142.73 157.4 141.916 155.274C141.843 155.078 141.802 154.805 141.52 154.819C141.224 154.832 140.964 154.982 140.846 155.274C140.773 155.451 140.746 155.652 140.714 155.843C140.345 158.078 139.476 160.126 138.278 162.029C137.036 164 135.483 165.666 133.376 166.759C132.952 166.978 132.629 166.968 132.233 166.713C130.977 165.912 129.948 164.888 129.087 163.673C127.471 161.396 126.529 158.815 125.682 156.184C125.573 155.852 125.491 155.51 125.259 155.233C124.827 154.723 124.599 154.741 124.267 155.315C124.157 155.501 124.053 155.702 123.943 155.888C121.813 159.389 119.273 162.507 115.668 164.606C113.651 165.776 113.2 165.712 111.443 164.151C108.994 161.984 107.66 159.161 106.759 156.093C106.531 155.319 106.376 154.518 106.158 153.608C105.334 155.392 104.496 156.995 103.44 158.483C101.897 160.654 99.9806 162.28 97.2948 162.881C95.3829 163.304 93.7532 163.026 92.4831 161.396C90.858 159.298 90.0295 156.935 90.0386 154.281C90.0386 154.036 90.1524 153.731 89.7973 153.617C89.4468 153.503 89.2192 153.658 89.0098 153.926C88.7002 154.327 88.3861 154.718 88.0493 155.092C84.9902 158.419 81.3621 160.354 76.6915 159.644C75.4806 159.457 74.3243 159.093 73.25 158.479C73.2955 158.392 73.3137 158.351 73.341 158.319C73.4184 158.242 73.5049 158.178 73.5869 158.105C79.8188 153.294 84.148 147.153 86.5152 139.628C88.3087 133.942 88.8505 128.07 88.9597 122.152C89.0462 117.463 88.7503 112.783 88.3588 108.113C88.0811 104.799 87.7579 101.494 87.3801 98.189C86.8748 93.7733 86.5106 89.344 86.6199 84.8919C86.7018 81.8237 87.0387 78.7874 87.8125 75.8102C89.7381 68.4083 94.2266 63.3372 101.501 60.8653C105.225 59.5953 109.053 59.5406 112.918 60.1188C117.857 60.8608 122.482 62.5269 126.898 64.8212C127.412 65.0898 127.385 65.2537 126.984 65.6269C125.519 66.9835 124.135 68.422 122.956 70.0335C120.789 72.9788 119.164 76.1016 120.065 79.9482C120.033 79.9755 120.006 80.0074 119.983 80.0302C119.746 79.9164 119.51 79.8071 119.277 79.6842C117.598 78.8011 115.79 78.4642 113.929 78.7328C108.502 79.5158 105.111 84.1909 105.962 89.608C106.686 94.2103 111.42 97.7383 116.009 97.1237C116.956 96.9963 117.866 96.7368 118.754 96.4409C118.863 96.5957 118.804 96.6958 118.772 96.8005C118.217 98.6396 117.803 100.524 117.584 102.441C117.279 105.127 117.789 107.526 119.883 109.433C123.27 112.524 128.3 113.088 132.347 111.254C135.014 110.038 136.421 107.585 135.975 104.985C136.116 105.177 136.225 105.309 136.316 105.45C143.231 116.011 149.846 126.759 155.896 137.843C159.546 144.526 163.006 151.295 166.347 158.137Z" fill="#F89B36"/>
<path fill-rule="evenodd" clip-rule="evenodd" d="M122.107 60.0521C119.936 59.1918 117.733 58.6045 115.466 58.2085C112.698 57.726 109.916 57.5894 107.108 57.8216C103.744 58.0992 100.548 58.9596 97.4478 60.2661C92.4449 62.3692 87.8336 66.2705 86.1128 71.3325C85.2707 73.7998 84.8427 76.3491 84.6333 78.9529C84.5195 80.3778 84.5469 81.7981 84.5287 83.2229C84.5241 83.6645 84.4422 83.842 83.9232 83.9058C79.1024 84.5158 76.1617 82.8952 71.8689 81.0105C67.3895 79.0485 63.2561 76.5266 59.8055 72.9987C59.5278 72.7164 59.2775 72.4114 59.0135 72.1155C58.9588 72.0518 58.9224 71.9789 58.8359 71.8515C60.6432 71.4645 62.414 71.114 64.1438 70.6178C66.256 70.0124 68.3455 69.3478 70.048 67.8683C71.3409 66.753 72.1603 65.401 72.2194 63.6256C72.2741 61.8639 71.9554 60.1386 71.7369 58.4088C71.6641 57.8261 71.6231 57.2389 71.523 56.6562C71.3636 55.7321 71.8098 55.0993 72.4653 54.5622C74.9872 52.4818 77.9279 51.2072 81.0189 50.2467C81.4696 50.1101 81.7381 49.9189 81.9293 49.4546C83.3724 45.8765 86.1128 43.5959 89.5315 42.0345C91.8532 40.9738 94.3068 40.4412 96.8424 40.4184C100.921 40.3911 104.604 41.5792 107.645 44.4107C108.578 45.2756 109.388 46.2635 110.012 47.3833C110.285 47.875 110.622 48.0297 111.164 48.0161C113.094 47.9615 115.01 48.139 116.877 48.6716C120.555 49.7141 122.18 52.2132 122.376 55.855C122.439 57.0158 122.435 58.1766 122.257 59.3283C122.23 59.556 122.162 59.7881 122.107 60.0521Z" fill="#F89B36"/>
<path fill-rule="evenodd" clip-rule="evenodd" d="M189.832 219.296C200.648 223.402 211.005 228.542 221.001 234.724C222.777 235.821 224.839 234.073 224.329 231.901C223.35 227.759 222.272 223.657 221.092 219.565C220.719 218.258 221.315 216.865 222.472 216.419C226.478 214.863 230.516 213.447 234.599 212.177C236.561 211.562 236.843 208.621 235.04 207.497C223.191 200.109 210.882 193.995 198.035 189.147C196.806 188.687 195.486 189.438 195.118 190.804L188.326 216.128C187.971 217.444 188.64 218.846 189.832 219.296Z" fill="#D36127"/>
<path fill-rule="evenodd" clip-rule="evenodd" d="M204.976 213.175C200.725 211.222 196.418 209.424 192.048 207.79C191.083 207.43 190.013 207.981 189.745 208.978C189.267 210.754 188.793 212.533 188.315 214.313C188.006 215.456 188.907 216.558 190.086 216.503C194.789 216.303 199.473 216.303 204.162 216.508C206.078 216.59 206.72 213.977 204.976 213.175Z" fill="#B65B26"/>
<path fill-rule="evenodd" clip-rule="evenodd" d="M46.4139 220.235C35.5978 224.341 25.237 229.48 15.2449 235.662C13.4695 236.759 11.4028 235.011 11.9172 232.84C12.8959 228.697 13.9748 224.596 15.1493 220.503C15.5271 219.197 14.9308 217.804 13.7745 217.353C9.76855 215.796 5.73073 214.38 1.64739 213.11C-0.314619 212.496 -0.601396 209.555 1.20583 208.431C13.0553 201.042 25.3644 194.929 38.2108 190.081C39.4399 189.621 40.7601 190.372 41.1242 191.738L47.9207 217.062C48.2758 218.382 47.6066 219.784 46.4139 220.235Z" fill="#D36127"/>
<path fill-rule="evenodd" clip-rule="evenodd" d="M31.2798 214.113C35.5361 212.16 39.838 210.362 44.2081 208.728C45.1732 208.368 46.2429 208.919 46.507 209.92C46.985 211.696 47.4629 213.476 47.9409 215.255C48.2459 216.398 47.3491 217.5 46.1746 217.445C41.4722 217.245 36.788 217.245 32.0992 217.45C30.1782 217.527 29.5363 214.914 31.2798 214.113Z" fill="#B65B26"/>
<path fill-rule="evenodd" clip-rule="evenodd" d="M33.1758 183.18C50.6928 178.382 137.08 158.38 211.331 183.103C213.603 183.858 215.155 186.062 215.155 188.57V212.055C215.155 215.774 211.855 218.501 208.441 217.604C189.758 212.692 131.923 201.612 32.7752 218.118C28.8285 218.778 26.8209 215.023 26.7344 210.821C26.4977 199.309 27.44 191.884 28.2003 187.96C28.6008 185.825 31.1728 183.731 33.1758 183.18Z" fill="#F37121"/>
<path fill-rule="evenodd" clip-rule="evenodd" d="M46.4663 190.718C47.1536 195.347 47.8501 199.972 48.5512 204.602C48.6969 205.444 48.1187 206.232 47.3175 206.368C46.4845 206.491 45.4784 205.968 45.3236 205.125C45.1097 203.573 44.9003 202.021 44.6909 200.464C43.7759 200.469 42.8655 200.478 41.9505 200.487C42.1826 202.276 42.4102 204.065 42.6424 205.849C42.7972 206.691 42.2418 207.502 41.4361 207.638C40.644 207.793 39.8428 207.206 39.7062 206.359C38.8868 201.602 38.0674 196.84 37.2526 192.079C36.8611 189.898 40.4346 189.425 40.7896 191.665C41.0263 193.49 41.2722 195.32 41.5134 197.145C42.3966 196.982 43.2843 196.818 44.1628 196.658C43.9125 194.842 43.6576 193.03 43.4026 191.209C43.2752 190.367 43.8396 189.552 44.6818 189.425C45.5376 189.266 46.3115 189.844 46.4663 190.718Z" fill="white"/>
<path fill-rule="evenodd" clip-rule="evenodd" d="M56.0399 205.11C47.6365 206.553 48.5834 190.27 48.6153 190.202C48.547 189.319 49.2116 188.572 50.0538 188.508C50.9096 188.472 51.6698 189.118 51.7017 189.97C51.688 190.024 51.6971 202.383 55.1295 201.546C59.0353 200.585 55.562 189.396 55.521 189.373C55.3389 188.508 55.8442 187.675 56.6909 187.466C57.524 187.297 58.3525 187.803 58.5436 188.663C58.571 188.69 61.8622 203.43 56.0399 205.11Z" fill="white"/>
<path fill-rule="evenodd" clip-rule="evenodd" d="M71.4338 195.826C71.6523 198.171 71.0969 199.914 70.2047 201.111C69.5765 201.917 68.7935 202.468 67.9604 202.782C67.1547 203.083 66.2943 203.151 65.4886 203.028C64.305 202.832 63.2443 202.19 62.6252 201.193C61.56 199.441 61.9788 197.401 62.5934 195.899C61.9014 195.512 61.4007 194.875 61.0411 194.11C60.7588 193.514 60.6177 192.804 60.5676 192.098C60.5449 191.411 60.5949 190.728 60.7816 190.036C61.3051 187.883 62.8301 185.925 65.088 185.707C66.4309 185.584 67.4642 185.893 68.2244 186.371C69.3079 187.068 69.7813 188.133 70.0044 189.012C70.2229 189.849 69.7312 190.719 68.9164 190.919C68.1015 191.137 67.2457 190.646 67.0454 189.808C66.6266 188.26 62.6798 190.3 63.8088 192.813C63.9408 193.099 64.2458 193.309 64.7283 193.25C65.5842 193.163 66.3262 193.801 66.4127 194.647C66.44 195.075 66.3398 195.435 66.1077 195.749C61.387 202.427 69.408 202.35 68.4065 196.14C68.3292 195.294 68.9255 194.502 69.7495 194.433C70.6053 194.333 71.3336 194.952 71.4338 195.826Z" fill="white"/>
<path fill-rule="evenodd" clip-rule="evenodd" d="M81.8291 186.829C81.8245 186.861 82.2297 201.679 77.55 201.915C74.582 202.23 71.3863 187.599 71.3408 187.576C71.1496 186.747 71.6276 185.878 72.4515 185.659C73.2982 185.446 74.1358 185.951 74.3498 186.788C74.3635 186.807 77.2222 198.242 77.6137 198.201C77.6001 198.196 78.7472 186.652 78.7609 186.629C78.8201 185.764 79.5575 185.113 80.4134 185.154C81.2646 185.227 81.9019 185.964 81.8291 186.829Z" fill="white"/>
<path fill-rule="evenodd" clip-rule="evenodd" d="M87.1717 187.026C83.9624 187.213 85.9518 197.573 88.6011 197.432C91.815 197.268 90.8636 186.807 87.1717 187.026ZM93.6223 191.405C93.7042 193.44 93.3081 196.385 92.5343 197.796C91.6557 199.422 90.3401 200.473 88.765 200.569C87.1854 200.646 85.7742 199.754 84.7226 198.211C83.8122 196.9 83.1294 194.018 82.9974 191.988C82.8654 189.967 83.2705 188.059 84.0171 186.634C84.8956 184.973 86.2568 183.894 87.891 183.817C89.5298 183.712 90.9865 184.641 92.029 186.175C92.944 187.527 93.5449 189.375 93.6223 191.405Z" fill="white"/>
<path fill-rule="evenodd" clip-rule="evenodd" d="M104.719 196.753C104.087 199.27 102.375 199.798 100.595 200.167C99.5297 200.404 98.4782 200.208 97.504 199.689C96.5435 199.193 95.7059 198.387 95.1369 197.395C94.7272 196.639 94.9593 195.697 95.6831 195.241C96.3842 194.827 97.3219 195.068 97.7498 195.824C98.4509 200.809 102.179 196.766 101.351 195.178C101.064 194.668 100.472 194.09 99.4478 193.461C98.6239 192.952 97.9319 192.419 97.3948 191.868C95.7104 190.106 94.8455 187.316 96.1338 185.085C97.1854 183.205 99.3204 182.481 101.414 183.055C102.266 183.292 103.035 183.765 103.604 184.366C103.986 184.78 104.287 185.245 104.496 185.732C104.824 186.533 104.437 187.443 103.663 187.78C102.625 188.231 101.669 187.621 101.783 186.337C101.983 184.266 99.771 185.108 99.1064 186.223C98.5647 187.184 98.897 188.95 99.5753 189.665C99.9349 190.052 100.417 190.421 100.968 190.771C102.958 191.955 105.252 194.194 104.719 196.753Z" fill="white"/>
<path fill-rule="evenodd" clip-rule="evenodd" d="M117.339 184.554C117.366 188.428 117.398 192.306 117.421 196.18C121.313 196.786 120.243 183.876 117.339 184.554ZM122.993 193.249C121.978 196.29 119.693 198.771 116.078 198.884C115.646 198.889 115.241 198.72 114.972 198.425C114.658 198.156 114.458 197.76 114.448 197.309L114.235 184.053C114.23 183.735 114.348 183.398 114.544 183.138C114.758 182.706 115.154 182.373 115.673 182.292C118.978 181.709 121.277 183.184 122.501 185.492C123.111 186.625 123.43 187.932 123.516 189.288C123.585 190.622 123.412 191.97 122.993 193.249Z" fill="white"/>
<path fill-rule="evenodd" clip-rule="evenodd" d="M135.125 192.933C135.006 195.286 134.205 196.93 133.149 197.986C132.412 198.696 131.56 199.128 130.7 199.32C129.858 199.506 128.998 199.438 128.215 199.21C127.072 198.846 126.125 198.063 125.652 196.98C124.85 195.091 125.561 193.138 126.38 191.736C125.747 191.253 125.342 190.552 125.105 189.746C124.919 189.114 124.869 188.39 124.928 187.689C125.005 187.015 125.165 186.328 125.438 185.681C126.271 183.628 128.055 181.907 130.318 182.017C131.661 182.085 132.644 182.536 133.327 183.127C134.296 183.974 134.61 185.094 134.701 186C134.792 186.86 134.187 187.643 133.354 187.721C132.516 187.825 131.742 187.215 131.665 186.355C131.478 184.766 127.277 186.218 128.032 188.868C128.119 189.168 128.392 189.428 128.879 189.432C129.735 189.473 130.377 190.206 130.34 191.057C130.304 191.481 130.154 191.827 129.881 192.1C124.259 198.027 132.198 199.11 132.102 192.819C132.148 191.968 132.844 191.271 133.677 191.321C134.519 191.335 135.152 192.054 135.125 192.933Z" fill="white"/>
<path fill-rule="evenodd" clip-rule="evenodd" d="M143.174 199.679C139.464 200.698 137.566 199.46 136.773 196.469C135.854 192.95 136.81 187.474 137.019 183.641C137.119 181.479 140.452 181.743 140.315 183.75C140.106 187.515 138.968 193.601 139.833 197.052C140.465 199.592 143.47 194.539 144.257 197.771C144.453 198.618 143.975 199.465 143.174 199.679Z" fill="white"/>
<path fill-rule="evenodd" clip-rule="evenodd" d="M164.481 186.811C164.467 186.847 162.145 201.483 157.507 200.855C154.529 200.618 154.065 185.65 154.033 185.618C153.992 184.762 154.616 184.002 155.472 183.934C156.346 183.87 157.07 184.526 157.124 185.391C157.138 185.413 157.848 197.176 158.239 197.208C158.221 197.204 161.471 186.069 161.494 186.046C161.713 185.204 162.555 184.699 163.393 184.904C164.216 185.127 164.713 185.973 164.481 186.811Z" fill="white"/>
<path fill-rule="evenodd" clip-rule="evenodd" d="M170.782 192.559C170.545 190.292 170.112 188.33 169.421 188.258C168.515 188.135 167.827 189.96 167.213 192.323C168 192.305 168.833 192.332 169.639 192.423C170.031 192.459 170.395 192.496 170.782 192.559ZM174.041 200.48C173.964 201.327 173.249 202.005 172.416 201.937C171.601 201.896 170.991 201.145 171.037 200.294C171.046 200.271 171.105 197.981 171.014 195.801C170.468 195.687 169.885 195.6 169.307 195.537C168.387 195.441 167.436 195.423 166.503 195.505C166.503 195.509 166.475 195.532 166.453 195.528C166.138 196.852 165.783 198.664 165.456 199.793C164.795 202.046 162.515 200.521 162.761 199.16C163.362 195.559 165.273 188.622 167.827 185.922C168.592 185.117 169.484 184.68 170.477 184.78C175.211 185.285 174.027 200.435 174.041 200.48Z" fill="white"/>
<path fill-rule="evenodd" clip-rule="evenodd" d="M182.068 203.216C178.272 203.894 176.487 202.497 175.964 199.447C175.363 195.86 176.81 190.497 177.357 186.692C177.648 184.547 180.958 185.121 180.639 187.101C180.088 190.83 178.404 196.793 178.964 200.303C179.36 202.879 182.828 198.118 183.316 201.413C183.438 202.269 182.883 203.075 182.068 203.216Z" fill="white"/>
<path fill-rule="evenodd" clip-rule="evenodd" d="M190.92 204.522C187.105 205.119 185.357 203.676 184.893 200.626C184.365 197.02 185.913 191.69 186.55 187.902C186.887 185.767 190.178 186.4 189.823 188.38C189.199 192.086 187.392 198.017 187.879 201.545C188.23 204.126 191.781 199.451 192.208 202.742C192.309 203.598 191.74 204.395 190.92 204.522Z" fill="white"/>
<path fill-rule="evenodd" clip-rule="evenodd" d="M204.058 200.232C203.571 202.544 202.519 204.028 201.304 204.911C200.457 205.494 199.547 205.79 198.664 205.84C197.799 205.895 196.957 205.699 196.21 205.339C195.136 204.802 194.321 203.878 194.02 202.731C193.52 200.746 194.535 198.925 195.564 197.673C195.017 197.1 194.722 196.344 194.612 195.506C194.521 194.86 194.594 194.136 194.758 193.444C194.94 192.784 195.195 192.142 195.573 191.541C196.715 189.643 198.755 188.223 200.99 188.692C202.306 188.969 203.216 189.575 203.794 190.258C204.623 191.25 204.759 192.402 204.714 193.308C204.677 194.173 203.944 194.851 203.102 194.801C202.255 194.778 201.582 194.041 201.636 193.185C201.7 191.582 197.307 192.356 197.64 195.088C197.685 195.402 197.904 195.689 198.395 195.775C199.237 195.943 199.761 196.772 199.588 197.614C199.483 198.028 199.283 198.347 198.969 198.575C192.464 203.541 200.171 205.863 201.058 199.635C201.24 198.793 202.037 198.224 202.852 198.397C203.703 198.561 204.222 199.371 204.058 200.232Z" fill="white"/>
<path fill-rule="evenodd" clip-rule="evenodd" d="M142.251 72.9492C141.778 74.2739 140.977 75.28 140.134 76.2541C137.663 79.122 134.79 81.5529 131.868 83.9337C130.525 85.0217 129.145 86.0551 127.78 87.1203C127.543 87.3069 127.347 87.4571 127.074 87.1294C125.276 84.958 123.674 82.6728 122.991 79.8777C122.699 78.6668 122.645 77.4605 123.055 76.2541C123.173 75.9036 123.355 75.6851 123.783 75.6305C129.81 74.8703 135.842 74.151 141.814 73.0084C141.923 72.9856 142.033 72.9765 142.251 72.9492Z" fill="#F89B36"/>
<path fill-rule="evenodd" clip-rule="evenodd" d="M123.729 74.7755C123.419 74.8438 123.337 74.6435 123.542 74.1018C124.817 70.8242 126.952 68.1611 129.447 65.7484C129.638 65.5618 129.843 65.5026 130.102 65.5436C133.748 66.1172 137.299 67.0322 140.668 68.5663C141.706 69.0351 142.684 69.636 143.376 70.592C143.859 71.2521 143.809 71.3568 143.017 71.548C138.182 72.6906 133.316 73.6647 128.386 74.3021C126.934 74.4933 125.468 74.6025 123.729 74.7755Z" fill="#F89B36"/>
<path fill-rule="evenodd" clip-rule="evenodd" d="M124.879 85.7812C125.28 86.3958 125.681 87.0103 126.072 87.6294C129.031 92.3273 131.753 97.1709 134.612 101.919C135.527 103.435 135.222 104.655 134.48 105.925C132.527 109.289 128.152 110.523 124.474 108.806C121.693 107.514 120.332 105.096 120.486 102.024C120.609 99.62 120.4 98.3317 121.192 96.1011C121.256 95.9236 121.365 95.7916 121.488 95.6596C124.333 94.1938 125.594 91.2212 125.421 88.4352C125.385 87.8525 124.911 86.4049 124.807 85.8268C124.829 85.8131 124.857 85.7995 124.879 85.7812Z" fill="#F89B36"/>
<path fill-rule="evenodd" clip-rule="evenodd" d="M117.029 85.0014C114.953 85.0014 113.264 86.6675 113.26 88.7251C113.255 90.8282 114.967 92.5717 117.016 92.549C119.059 92.5308 120.785 90.8282 120.807 88.7934C120.835 86.7312 119.114 85.0014 117.029 85.0014ZM116.679 95.6672C112.686 95.6354 109.432 92.3623 109.477 88.4247C109.527 84.4369 112.818 81.1821 116.756 81.223C120.753 81.264 123.939 84.5052 123.917 88.502C123.898 92.5262 120.698 95.69 116.679 95.6672Z" fill="#F89B36"/>
<path fill-rule="evenodd" clip-rule="evenodd" d="M137.363 87.7891C140.236 89.2185 142.694 90.8527 144.032 93.7297C144.437 94.5992 144.674 95.5051 144.424 96.4701C144.351 96.7524 144.319 97.1075 143.991 97.2076C143.668 97.3123 143.431 97.0619 143.213 96.8571C142.621 96.3108 142.148 95.6598 141.688 94.9998C140.117 92.7419 138.761 90.3565 137.363 87.7891Z" fill="white"/>
<path fill-rule="evenodd" clip-rule="evenodd" d="M72.0853 225.161C71.5071 225.143 71.0246 225.621 71.0064 226.199C71.1794 230.473 65.5392 229.813 69.4404 225.739C69.6271 225.552 69.7318 225.307 69.7454 225.02C69.7636 224.446 69.3084 223.945 68.7075 223.932C68.3707 223.932 68.1795 223.759 68.1112 223.554C67.5649 221.765 70.4419 220.741 70.6013 221.815C70.6695 222.393 71.2158 222.803 71.7939 222.716C72.3721 222.648 72.7772 222.102 72.6953 221.524C72.6088 220.909 72.3721 220.163 71.6847 219.603C71.2113 219.207 70.5284 218.924 69.6089 218.883C68.0611 218.833 66.8502 220.008 66.2858 221.41C66.0991 221.851 65.9944 222.311 65.9489 222.771C65.917 223.249 65.9489 223.741 66.0855 224.169C66.2539 224.715 66.5452 225.193 66.9868 225.516C66.4223 226.467 65.9307 227.797 66.5088 229.076C66.8502 229.809 67.5331 230.337 68.3479 230.578C68.9078 230.728 69.5224 230.76 70.1187 230.628C70.7333 230.492 71.325 230.182 71.8394 229.69C72.5724 228.957 73.1004 227.838 73.1368 226.231C73.1368 225.634 72.6771 225.161 72.0853 225.161ZM83.7526 225.807C83.1745 225.789 82.6737 226.249 82.6737 226.845C82.6601 226.877 82.6601 226.968 82.6236 227.068C81.0759 233.182 79.5555 221.647 81.4628 220.9C81.8407 220.763 82.4871 220.914 82.519 221.938C82.5872 222.516 83.1153 222.93 83.6934 222.857C84.2716 222.789 84.6995 222.261 84.6312 221.683C84.531 220.95 84.2215 220.367 83.7936 219.93C83.3702 219.498 82.8422 219.248 82.2777 219.143C81.7314 219.043 81.1533 219.093 80.6116 219.298C79.997 219.539 79.4508 219.98 79.0729 220.613C78.8043 221.073 78.5949 221.596 78.4447 222.179C78.1215 223.458 78.0669 225.024 78.3036 226.372C78.5813 227.874 79.2049 229.185 80.2474 229.795C80.4705 229.932 80.7117 230.036 80.9484 230.086C81.1897 230.155 81.4401 230.187 81.6813 230.187C82.6191 230.205 83.3338 229.795 83.8254 229.235C84.2716 228.725 84.5583 228.111 84.6813 227.596C84.7495 227.341 84.7814 227.105 84.7814 226.882C84.8042 226.303 84.3307 225.807 83.7526 225.807ZM96.3395 221.018C95.6931 219.93 94.7417 219.229 93.6173 219.211C92.4929 219.179 91.5005 219.826 90.804 220.9C90.2077 221.82 89.8116 223.081 89.7797 224.46C89.7479 225.839 90.0529 227.838 90.6173 228.771C91.2638 229.877 92.2152 230.555 93.3441 230.592C94.4685 230.61 95.4609 229.963 96.1529 228.907C96.7674 227.983 97.1771 226.008 97.209 224.628C97.2454 223.253 96.904 221.974 96.3395 221.018ZM93.3942 228.466C91.5005 228.411 90.7357 221.291 92.9481 221.342C95.4882 221.396 95.6794 228.52 93.3942 228.466ZM109.409 226.763C109.409 226.167 108.931 225.689 108.33 225.689H106.322C105.726 225.689 105.253 226.167 105.253 226.763C105.253 227.341 105.731 227.819 106.322 227.819H106.923C106.546 228.775 105.198 229.026 104.675 227.701C103.55 224.824 106.222 219.525 107.092 221.942C107.347 222.644 106.992 223.795 108.152 223.713C108.731 223.681 109.172 223.167 109.136 222.589C109.136 222.571 108.913 218.943 105.166 219.621C103.905 219.844 103.054 221.037 102.594 222.566C102.321 223.467 102.185 224.528 102.198 225.552C102.198 226.608 102.371 227.628 102.694 228.466C103.172 229.677 103.987 230.542 105.198 230.683C106.186 230.783 106.937 230.651 107.483 230.373C107.684 230.614 107.993 230.783 108.335 230.783C108.913 230.783 109.391 230.305 109.391 229.713V226.95C109.391 226.936 109.391 226.918 109.391 226.904C109.391 226.85 109.409 226.813 109.409 226.763ZM120.789 223.167C120.912 222.197 120.721 221.328 120.352 220.645C120.011 220.044 119.515 219.589 118.969 219.284C118.39 218.961 117.744 218.82 117.111 218.888C116.497 218.961 115.905 219.211 115.409 219.689C114.348 220.713 114.366 222.179 114.485 227.105C114.503 227.801 114.517 228.589 114.539 229.404C114.539 229.982 115.017 230.46 115.614 230.441C116.192 230.441 116.67 229.95 116.651 229.372C116.638 228.639 116.638 228.011 116.62 227.41L118.327 230.036C118.65 230.528 119.296 230.665 119.788 230.341C120.284 230.018 120.421 229.372 120.098 228.875L117.935 226.144C118.45 226.044 118.887 225.853 119.264 225.616C120.179 225.043 120.657 224.173 120.789 223.167ZM118.204 223.29C118.067 224.41 117.184 224.774 116.551 224.159C116.533 222.211 116.606 221.496 116.875 221.228C117.726 220.404 118.359 222.111 118.204 223.29ZM130.199 219.129C129.511 219.129 128.933 219.489 128.474 220.081C126.921 222.074 126.052 226.882 125.865 229.353C125.783 230.291 127.504 231.174 127.814 229.604C127.964 228.821 128.082 227.578 128.205 226.659C128.219 226.659 128.237 226.645 128.237 226.645C128.883 226.522 129.543 226.472 130.199 226.472C130.604 226.472 131.014 226.49 131.405 226.527C131.642 227.988 131.783 229.54 131.783 229.558C131.815 230.136 132.311 230.596 132.889 230.564C133.486 230.546 133.927 230.036 133.913 229.458C133.895 229.422 133.436 219.129 130.199 219.129ZM130.199 224.341C129.634 224.341 129.056 224.373 128.51 224.446C128.765 222.807 129.106 221.528 129.735 221.551C130.213 221.551 130.659 222.844 130.996 224.364C130.727 224.341 130.472 224.341 130.199 224.341ZM146.095 222.844C145.74 220.372 144.661 218.751 142.158 219.097C138.68 219.575 139.139 226.681 139.126 229.272C139.126 229.85 139.604 230.328 140.2 230.328C140.778 230.328 141.461 229.663 141.461 229.08C141.461 227.719 140.933 221.414 142.449 221.21C143.3 221.096 143.692 222.234 143.878 223.581C144.083 225.47 143.81 228.211 143.742 229.171C143.724 229.768 144.338 230.501 144.934 230.514C145.513 230.533 146.009 230.091 146.041 229.495C146.113 227.651 146.355 224.697 146.095 222.844ZM157.362 220.458V220.272V220.067C157.362 219.98 157.344 219.899 157.33 219.812V219.794C157.194 219.357 156.798 219.034 156.306 219.034L154.84 219.184C154.262 219.184 153.784 219.648 153.761 220.24C153.747 221.141 154.394 221.264 155.109 221.278C155.163 223.549 155.332 226.135 155.14 228.384C155.04 229.8 153.37 229.376 153.625 227.992C153.725 227.414 153.333 226.854 152.773 226.75C152.195 226.649 151.631 227.023 151.526 227.601C151.289 228.88 151.836 229.8 152.687 230.328C153.046 230.546 153.47 230.701 153.916 230.751C154.339 230.801 154.785 230.751 155.195 230.633C156.251 230.309 157.134 229.44 157.271 227.992C157.326 227.332 157.357 226.463 157.357 225.234C157.376 224.068 157.412 222.398 157.362 220.458ZM166.699 219.129C166.011 219.129 165.433 219.489 164.973 220.081C163.421 222.074 162.551 226.882 162.365 229.353C162.283 230.291 164.004 231.174 164.313 229.604C164.463 228.821 164.582 227.578 164.705 226.659C164.718 226.659 164.737 226.645 164.737 226.645C165.383 226.522 166.043 226.472 166.699 226.472C167.104 226.472 167.513 226.49 167.905 226.527C168.142 227.988 168.283 229.54 168.283 229.558C168.315 230.136 168.811 230.596 169.389 230.564C169.985 230.546 170.427 230.036 170.413 229.458C170.395 229.422 169.935 219.129 166.699 219.129ZM166.699 224.341C166.134 224.341 165.556 224.373 165.01 224.446C165.265 222.807 165.606 221.528 166.234 221.551C166.712 221.551 167.158 222.844 167.495 224.364C167.227 224.341 166.967 224.341 166.699 224.341Z" fill="black"/>
</svg>
